<svg id="svg" version="1.1" xmlns="http://www.w3.org/2000/svg" xmlns:xlink="http://www.w3.org/1999/xlink" width="400" height="400" viewBox="0, 0, 400,400"><g id="svgg"><path id="path0" d="M203.583 59.338 C 199.159 59.506,190.340 60.478,186.167 61.257 C 185.021 61.471,183.521 61.733,182.833 61.839 C 182.146 61.946,181.433 62.092,181.250 62.165 C 181.067 62.238,180.279 62.429,179.500 62.588 C 177.715 62.954,174.894 63.719,171.083 64.871 C 168.485 65.657,163.811 67.380,161.917 68.251 C 157.065 70.481,152.177 73.095,149.698 74.783 C 149.119 75.177,148.616 75.500,148.579 75.500 C 148.403 75.500,144.417 78.384,143.000 79.537 C 142.679 79.798,142.342 80.069,142.250 80.138 C 140.201 81.697,134.761 87.125,132.784 89.583 C 131.844 90.752,130.596 92.301,130.360 92.591 C 130.005 93.028,129.169 94.214,127.959 96.000 C 127.431 96.779,126.922 97.529,126.828 97.667 C 125.951 98.950,123.744 102.916,122.454 105.531 C 119.713 111.083,118.072 115.380,115.847 122.833 C 115.414 124.285,114.743 127.093,114.414 128.833 C 114.266 129.612,114.084 130.400,114.007 130.583 C 113.931 130.767,113.781 131.554,113.673 132.333 C 113.565 133.112,113.332 134.688,113.156 135.833 C 111.747 144.977,111.291 159.868,112.176 167.833 C 112.636 171.970,113.285 176.483,113.680 178.282 C 113.764 178.666,113.833 179.174,113.833 179.409 C 113.833 179.645,113.906 179.968,113.995 180.127 C 114.084 180.286,114.306 181.129,114.487 182.000 C 115.253 185.671,117.134 191.614,118.929 196.033 C 120.554 200.034,123.291 205.555,124.885 208.045 C 125.223 208.574,125.500 209.044,125.500 209.090 C 125.500 209.184,128.121 213.173,129.607 215.341 C 130.144 216.124,130.992 217.399,131.492 218.174 C 132.639 219.952,134.300 222.224,136.192 224.606 C 137.003 225.627,137.667 226.506,137.667 226.559 C 137.667 226.846,132.484 223.287,130.565 221.683 C 130.281 221.445,129.906 221.137,129.732 221.000 C 129.559 220.862,129.079 220.475,128.667 220.140 C 125.066 217.214,120.152 217.118,116.272 219.898 C 112.962 222.268,110.331 225.932,108.419 230.833 C 108.258 231.246,108.062 231.733,107.983 231.917 C 106.202 236.038,105.999 241.539,107.230 252.400 C 107.611 255.762,107.833 258.192,107.833 258.996 C 107.833 259.398,107.903 259.957,107.989 260.238 C 108.074 260.520,108.264 262.025,108.411 263.583 C 108.807 267.807,109.904 277.266,110.440 281.083 C 110.582 282.092,110.762 283.442,110.841 284.083 C 110.997 285.346,111.442 288.210,111.567 288.750 C 111.609 288.933,111.730 289.683,111.836 290.417 C 112.094 292.198,113.183 298.030,113.679 300.282 C 113.764 300.666,113.833 301.174,113.833 301.409 C 113.833 301.645,113.904 301.968,113.991 302.127 C 114.078 302.286,114.266 303.017,114.410 303.750 C 115.669 310.195,116.929 313.207,119.569 316.083 C 120.074 316.633,120.490 317.158,120.494 317.250 C 120.530 318.093,122.766 321.598,124.167 323.005 C 132.006 330.884,150.559 339.925,166.417 343.592 C 166.967 343.719,168.092 343.982,168.917 344.176 C 172.693 345.063,179.038 346.157,182.833 346.574 C 183.979 346.700,185.554 346.884,186.333 346.982 C 193.204 347.855,208.551 347.507,215.667 346.318 C 216.262 346.218,217.425 346.035,218.250 345.910 C 225.921 344.750,233.984 342.446,240.783 339.472 C 241.167 339.304,241.519 339.167,241.564 339.167 C 242.032 339.167,248.958 335.645,251.667 334.030 C 252.354 333.620,253.067 333.201,253.250 333.099 C 254.110 332.620,257.273 330.475,259.238 329.038 C 265.050 324.789,268.991 321.101,273.352 315.833 C 273.845 315.237,274.388 314.600,274.558 314.417 C 280.090 308.438,287.148 295.348,290.912 284.083 C 292.124 280.457,292.671 278.521,293.576 274.667 C 294.111 272.384,294.936 268.227,295.147 266.750 C 296.045 260.452,296.143 259.681,296.340 257.333 C 296.437 256.188,296.583 254.987,296.665 254.667 C 297.523 251.326,297.890 239.454,297.281 234.750 C 295.971 224.620,292.300 213.633,287.521 205.534 C 287.234 205.049,287.000 204.624,287.000 204.591 C 287.000 204.557,286.461 203.642,285.802 202.556 C 284.808 200.920,282.875 197.628,282.099 196.250 C 281.869 195.843,281.648 195.498,279.853 192.750 C 279.074 191.558,278.239 190.321,277.997 190.000 C 277.755 189.679,277.001 188.667,276.323 187.750 C 275.644 186.833,274.928 185.896,274.732 185.667 C 274.535 185.438,273.628 184.350,272.717 183.250 C 270.103 180.095,265.703 175.750,261.833 172.501 C 259.363 170.427,259.277 170.325,260.111 170.432 C 260.749 170.515,263.489 170.966,266.167 171.429 C 266.946 171.564,268.071 171.745,268.667 171.831 C 269.262 171.918,270.425 172.106,271.250 172.249 C 272.730 172.505,274.126 172.742,277.107 173.244 C 284.146 174.427,290.490 169.050,294.284 158.687 C 294.885 157.043,294.957 156.795,295.795 153.500 C 297.811 145.563,298.277 125.800,296.745 113.250 C 296.530 111.492,295.995 103.574,295.833 99.750 C 295.500 91.905,294.533 88.572,291.452 84.653 C 290.905 83.957,290.273 82.945,290.046 82.403 C 289.023 79.957,287.304 77.606,285.167 75.729 C 284.846 75.448,284.358 74.900,284.083 74.512 C 281.694 71.144,278.329 69.198,273.833 68.584 C 272.688 68.428,271.600 68.240,271.417 68.168 C 271.233 68.095,270.446 67.944,269.667 67.831 C 268.278 67.631,265.985 67.139,263.500 66.509 C 261.456 65.991,258.814 65.363,257.833 65.162 C 257.329 65.058,256.242 64.824,255.417 64.642 C 249.242 63.276,247.517 62.911,245.667 62.584 C 244.796 62.430,243.821 62.240,243.500 62.162 C 243.179 62.084,242.317 61.933,241.583 61.828 C 240.850 61.723,239.200 61.461,237.917 61.247 C 226.989 59.423,216.584 58.844,203.583 59.338 " stroke="none" fill="#3b15d1" fill-rule="evenodd"></path><path id="path1" d="M90.000 24.853 C 76.446 25.933,73.390 31.412,72.300 56.583 C 71.982 63.935,71.982 336.565,72.300 343.917 C 73.363 368.477,76.204 373.965,88.667 375.530 C 91.764 375.919,302.878 375.848,305.680 375.458 C 317.339 373.831,320.182 368.416,321.367 345.583 C 321.686 339.448,321.686 61.052,321.367 54.917 C 320.144 31.345,317.123 26.075,304.167 24.909 C 301.212 24.643,93.316 24.588,90.000 24.853 M187.378 36.548 C 191.718 37.630,192.154 38.991,192.284 51.875 C 192.331 56.435,192.419 60.167,192.480 60.167 C 192.542 60.167,193.190 60.092,193.921 60.000 C 195.331 59.824,200.826 59.339,201.458 59.335 L 201.833 59.333 201.842 54.292 C 201.869 38.393,202.453 36.904,208.896 36.334 C 211.417 36.110,304.083 36.110,306.604 36.334 C 311.044 36.727,312.473 37.920,313.188 41.833 C 313.517 43.630,313.529 116.823,313.201 118.554 C 312.316 123.227,310.973 123.971,303.105 124.144 L 298.294 124.250 298.254 133.833 C 298.207 145.134,297.915 148.335,296.404 154.083 C 296.163 155.000,295.955 155.900,295.941 156.083 C 295.917 156.408,296.050 156.419,301.250 156.516 C 311.211 156.702,312.056 157.401,312.511 165.833 C 312.766 170.554,312.629 236.270,312.361 238.083 C 311.578 243.377,310.188 244.272,302.476 244.450 L 298.368 244.545 298.255 246.731 C 298.140 248.935,297.601 253.849,297.339 255.083 C 297.260 255.450,297.147 256.387,297.087 257.167 C 296.647 262.836,295.410 270.283,293.917 276.250 C 293.688 277.166,293.500 277.962,293.500 278.019 C 293.500 278.075,296.631 278.163,300.458 278.214 C 312.289 278.371,313.233 278.891,313.840 285.583 C 314.166 289.180,313.968 359.445,313.627 360.943 C 312.858 364.324,311.494 365.554,308.000 366.015 C 305.411 366.356,208.082 366.133,206.917 365.783 C 203.195 364.665,202.590 362.986,202.387 353.208 L 202.280 348.000 197.306 348.000 L 192.333 348.000 192.333 351.708 C 192.332 362.392,191.449 364.622,186.906 365.414 C 184.853 365.772,87.996 365.789,86.000 365.431 C 82.884 364.874,81.700 363.610,81.045 360.143 C 80.589 357.732,80.589 285.768,81.045 283.357 C 81.431 281.313,81.874 280.325,82.779 279.491 C 84.534 277.874,84.985 277.823,98.546 277.717 L 109.841 277.628 109.753 277.106 C 109.558 275.947,108.285 264.312,107.343 255.083 C 106.884 250.592,106.462 246.485,106.405 245.958 L 106.301 245.000 97.692 244.996 C 83.120 244.988,82.068 244.641,81.035 239.500 C 80.594 237.306,80.597 164.893,81.038 162.565 C 82.068 157.125,82.476 157.003,99.677 157.001 L 111.437 157.000 111.636 151.625 C 112.020 141.236,112.959 133.882,114.976 125.467 L 115.283 124.183 100.767 124.123 C 87.456 124.068,86.168 124.039,85.257 123.767 C 82.635 122.986,81.684 121.857,81.048 118.770 C 80.705 117.102,80.500 47.923,80.826 43.907 C 81.279 38.340,82.676 36.731,87.396 36.337 C 90.906 36.044,186.162 36.245,187.378 36.548 " stroke="none" fill="#fbfbfa" fill-rule="evenodd"></path><path id="path2" d="M76.167 6.842 C 67.976 7.225,63.908 8.791,60.583 12.843 C 60.217 13.289,59.191 15.007,58.897 15.667 C 58.156 17.329,57.683 18.620,57.342 19.917 C 55.813 25.724,55.045 33.183,54.668 45.917 C 54.428 53.995,54.428 343.172,54.668 351.250 C 54.972 361.505,55.840 371.576,56.653 374.286 C 56.729 374.541,56.879 375.162,56.986 375.667 C 58.142 381.118,60.519 385.150,63.800 387.223 C 65.184 388.098,65.909 388.435,67.600 388.988 C 69.775 389.699,72.562 390.087,77.255 390.334 C 79.307 390.441,121.734 390.500,197.333 390.500 C 321.541 390.500,320.000 390.510,324.417 389.646 C 326.341 389.269,326.720 389.160,328.458 388.480 C 332.414 386.932,335.114 383.863,336.725 379.083 C 337.468 376.876,337.551 376.607,337.675 376.000 C 337.740 375.679,337.909 374.854,338.051 374.167 C 339.120 368.981,339.632 362.927,340.003 351.083 C 340.232 343.759,340.232 53.383,340.002 46.083 C 339.323 24.440,337.760 16.733,333.016 11.634 C 330.654 9.095,327.689 7.905,321.417 6.978 C 319.759 6.733,81.329 6.601,76.167 6.842 M301.684 24.671 C 317.402 25.461,320.327 30.237,321.539 57.083 C 321.847 63.893,321.847 336.582,321.540 343.417 C 320.402 368.726,317.617 374.143,305.000 375.588 C 301.894 375.944,91.825 375.948,88.661 375.592 C 81.785 374.819,78.368 372.779,76.012 368.040 C 75.384 366.776,74.442 364.070,74.171 362.750 C 72.946 356.792,72.550 352.629,72.127 341.250 C 71.818 332.928,71.820 67.929,72.130 59.333 C 73.160 30.725,76.091 25.483,91.502 24.684 C 95.477 24.478,297.594 24.465,301.684 24.671 M87.667 36.444 C 83.311 36.893,81.963 37.988,81.201 41.697 C 80.825 43.530,80.756 116.159,81.129 118.307 C 81.702 121.611,82.663 122.847,85.250 123.611 C 86.167 123.882,87.459 123.911,100.783 123.960 L 115.317 124.014 115.508 123.299 C 123.929 91.858,144.859 71.224,176.583 63.087 C 181.320 61.872,190.384 60.167,192.107 60.167 C 192.345 60.167,192.031 43.086,191.769 41.730 C 191.161 38.595,190.095 37.379,187.357 36.701 C 186.338 36.448,90.036 36.200,87.667 36.444 M208.272 36.516 C 202.672 37.107,202.008 38.902,202.002 53.484 L 202.000 59.217 204.375 59.105 C 220.251 58.357,234.594 59.832,254.667 64.277 C 261.186 65.720,261.961 65.897,263.917 66.390 C 266.106 66.942,271.770 68.070,274.083 68.414 C 278.637 69.092,281.646 70.876,284.364 74.510 C 284.676 74.928,285.519 75.827,286.237 76.509 C 288.154 78.330,289.466 80.346,290.601 83.214 C 290.775 83.652,291.107 84.221,291.341 84.478 C 293.928 87.331,295.356 91.544,295.668 97.250 C 295.942 102.243,296.499 110.605,296.668 112.250 C 296.752 113.075,296.935 115.475,297.074 117.583 C 297.213 119.692,297.372 122.024,297.426 122.767 L 297.526 124.117 299.888 124.060 C 306.917 123.890,307.985 123.837,308.833 123.622 C 311.385 122.976,312.438 121.706,313.035 118.554 C 313.207 117.646,313.250 109.923,313.250 80.167 C 313.250 50.411,313.207 42.688,313.035 41.779 C 312.340 38.110,310.993 36.940,306.965 36.507 C 304.999 36.296,210.279 36.304,208.272 36.516 M294.809 157.305 C 294.639 157.703,294.500 158.080,294.500 158.143 C 294.500 158.751,292.174 163.619,291.104 165.250 C 286.878 171.694,282.478 174.212,277.113 173.257 C 276.363 173.124,275.075 172.901,274.250 172.762 C 273.425 172.623,272.075 172.392,271.250 172.249 C 270.425 172.106,269.262 171.917,268.667 171.830 C 267.402 171.645,264.946 171.232,263.167 170.906 C 259.852 170.298,259.528 170.370,260.863 171.417 C 269.679 178.331,278.101 188.538,284.451 200.000 C 285.188 201.329,286.315 203.354,286.957 204.500 C 293.906 216.907,297.288 228.345,297.643 240.645 L 297.750 244.374 301.083 244.346 C 310.729 244.266,311.859 243.383,312.325 235.572 C 312.560 231.617,312.561 169.310,312.325 165.422 C 311.838 157.372,310.910 156.718,299.851 156.624 L 295.119 156.583 294.809 157.305 M86.470 157.352 C 82.644 157.846,81.413 159.470,80.994 164.583 C 80.678 168.434,80.869 237.929,81.200 239.519 C 82.233 244.481,82.844 244.692,96.458 244.789 L 106.167 244.857 106.167 241.970 C 106.171 227.830,115.525 215.670,124.656 217.938 C 126.512 218.399,127.631 219.040,130.167 221.095 C 132.632 223.092,135.799 225.382,136.842 225.921 C 137.527 226.275,137.615 226.416,135.270 223.419 C 134.364 222.262,133.458 221.076,133.257 220.783 C 133.055 220.490,132.479 219.650,131.975 218.917 C 131.472 218.183,130.385 216.646,129.560 215.500 C 117.796 199.157,111.535 179.468,111.502 158.708 L 111.500 157.167 99.542 157.188 C 92.965 157.199,87.082 157.273,86.470 157.352 M87.667 277.997 C 83.220 278.358,81.781 279.610,81.138 283.679 C 80.811 285.752,80.811 357.748,81.138 359.821 C 81.819 364.132,83.226 365.197,88.667 365.518 C 93.871 365.825,185.686 365.616,187.108 365.293 C 190.565 364.509,191.585 362.986,191.988 358.000 C 192.114 356.440,192.233 349.692,192.172 347.558 C 192.168 347.430,191.467 347.333,190.042 347.265 C 188.873 347.209,186.979 347.052,185.833 346.917 C 184.688 346.782,182.974 346.595,182.026 346.502 C 181.078 346.410,180.252 346.303,180.190 346.265 C 180.129 346.226,179.479 346.115,178.747 346.016 C 176.491 345.712,172.707 345.021,170.000 344.419 C 165.767 343.478,164.934 343.267,160.833 342.096 C 150.010 339.004,140.364 334.603,131.667 328.787 C 130.038 327.698,127.023 325.542,126.833 325.331 C 126.787 325.280,126.159 324.759,125.436 324.173 C 123.792 322.841,122.292 320.959,121.280 318.959 C 120.850 318.111,120.154 317.042,119.732 316.583 C 116.088 312.622,114.588 307.897,111.849 291.750 C 111.646 290.558,111.373 288.946,111.242 288.167 C 110.993 286.696,110.107 280.467,109.909 278.792 L 109.795 277.833 99.439 277.858 C 93.743 277.871,88.446 277.934,87.667 277.997 M292.429 279.358 C 291.543 282.369,290.306 286.139,289.757 287.500 C 289.628 287.821,289.321 288.608,289.074 289.250 C 286.724 295.372,282.917 302.673,279.300 307.998 C 276.844 311.614,275.500 313.377,273.074 316.167 C 272.236 317.129,271.296 318.215,270.984 318.579 C 267.197 322.997,258.312 330.272,253.250 333.100 C 253.067 333.202,252.129 333.757,251.167 334.333 C 249.032 335.611,244.237 338.028,241.750 339.080 C 240.742 339.507,239.392 340.084,238.750 340.364 C 238.108 340.643,237.283 340.970,236.917 341.089 C 236.550 341.209,235.725 341.494,235.083 341.723 C 233.653 342.233,230.214 343.305,229.083 343.592 C 228.625 343.709,227.612 343.967,226.833 344.167 C 223.057 345.133,217.537 346.144,213.667 346.579 C 212.521 346.708,211.096 346.887,210.500 346.977 C 209.904 347.066,208.254 347.186,206.833 347.242 C 205.412 347.298,203.846 347.389,203.353 347.444 L 202.456 347.544 202.552 353.147 C 202.748 364.552,203.379 365.574,210.500 365.998 C 214.110 366.213,302.053 366.218,305.922 366.003 C 312.422 365.642,313.452 364.408,313.835 356.527 C 314.042 352.256,314.043 292.259,313.836 288.000 C 313.390 278.831,312.946 278.515,300.328 278.380 L 292.740 278.299 292.429 279.358 " stroke="none" fill="#e25204" fill-rule="evenodd"></path><path id="path3" d="M204.333 59.158 C 203.371 59.208,206.933 59.250,212.250 59.250 C 217.567 59.250,221.017 59.204,219.917 59.148 C 217.482 59.023,206.754 59.030,204.333 59.158 M200.542 59.448 C 200.702 59.490,200.965 59.490,201.125 59.448 C 201.285 59.406,201.154 59.372,200.833 59.372 C 200.512 59.372,200.381 59.406,200.542 59.448 M223.294 59.451 C 223.501 59.491,223.801 59.490,223.960 59.448 C 224.120 59.406,223.950 59.374,223.583 59.375 C 223.217 59.377,223.086 59.411,223.294 59.451 M196.833 59.684 C 194.191 59.943,192.990 60.123,193.833 60.135 C 194.246 60.141,195.746 60.010,197.167 59.844 C 199.752 59.542,199.502 59.422,196.833 59.684 M225.125 59.618 C 225.331 59.657,225.669 59.657,225.875 59.618 C 226.081 59.578,225.912 59.545,225.500 59.545 C 225.088 59.545,224.919 59.578,225.125 59.618 M228.000 59.924 C 228.963 60.045,230.050 60.139,230.417 60.133 C 230.783 60.127,230.371 60.026,229.500 59.908 C 228.629 59.791,227.542 59.697,227.083 59.700 C 226.525 59.703,226.827 59.777,228.000 59.924 M192.042 60.282 C 192.202 60.323,192.465 60.323,192.625 60.282 C 192.785 60.240,192.654 60.205,192.333 60.205 C 192.012 60.205,191.881 60.240,192.042 60.282 M231.542 60.282 C 231.702 60.323,231.965 60.323,232.125 60.282 C 232.285 60.240,232.154 60.205,231.833 60.205 C 231.512 60.205,231.381 60.240,231.542 60.282 M189.250 60.581 C 188.477 60.718,188.280 60.792,188.667 60.798 C 188.987 60.804,189.813 60.709,190.500 60.589 C 191.394 60.432,191.560 60.370,191.083 60.371 C 190.717 60.372,189.892 60.466,189.250 60.581 M233.583 60.592 C 234.225 60.713,235.012 60.808,235.333 60.802 C 235.699 60.795,235.450 60.710,234.667 60.573 C 233.979 60.453,233.192 60.358,232.917 60.362 C 232.642 60.367,232.942 60.470,233.583 60.592 M183.833 61.494 C 182.596 61.751,181.683 61.970,181.805 61.981 C 182.050 62.002,185.449 61.418,186.448 61.183 C 188.060 60.804,185.946 61.055,183.833 61.494 M238.500 61.324 C 241.027 61.787,242.840 62.048,242.928 61.961 C 243.020 61.869,237.736 60.991,237.240 61.016 C 237.062 61.026,237.629 61.164,238.500 61.324 M179.500 62.383 C 178.629 62.577,178.040 62.762,178.191 62.794 C 178.342 62.825,178.916 62.735,179.465 62.592 C 180.015 62.450,180.618 62.333,180.806 62.333 C 180.993 62.333,181.193 62.258,181.250 62.167 C 181.377 61.961,181.423 61.955,179.500 62.383 M243.500 62.162 C 243.637 62.253,244.006 62.329,244.319 62.331 C 245.067 62.334,244.934 62.240,244.000 62.104 C 243.476 62.028,243.325 62.045,243.500 62.162 M245.750 62.587 C 246.208 62.705,246.771 62.800,247.000 62.798 C 247.238 62.795,247.059 62.702,246.583 62.580 C 246.125 62.462,245.563 62.367,245.333 62.369 C 245.096 62.371,245.275 62.465,245.750 62.587 M247.667 62.889 C 247.800 63.022,249.980 63.502,250.385 63.486 C 250.586 63.478,250.338 63.375,249.833 63.256 C 248.561 62.956,247.567 62.787,247.667 62.889 M176.083 63.245 C 175.717 63.366,175.567 63.467,175.750 63.470 C 175.933 63.472,176.383 63.376,176.750 63.255 C 177.117 63.134,177.267 63.033,177.083 63.030 C 176.900 63.028,176.450 63.124,176.083 63.245 M172.171 64.352 C 169.682 65.107,168.584 65.519,169.667 65.291 C 170.138 65.192,173.116 64.293,174.500 63.832 C 176.416 63.193,174.799 63.555,172.171 64.352 M251.917 63.846 C 252.192 63.929,253.317 64.191,254.417 64.429 C 255.517 64.667,256.904 64.967,257.500 65.097 C 258.096 65.227,258.696 65.327,258.833 65.319 C 259.150 65.301,252.005 63.673,251.667 63.686 C 251.529 63.691,251.642 63.763,251.917 63.846 M167.948 65.697 C 167.415 65.883,167.019 66.074,167.067 66.123 C 167.156 66.211,169.167 65.515,169.167 65.396 C 169.167 65.293,168.965 65.343,167.948 65.697 M260.500 65.762 C 260.912 65.896,261.550 66.042,261.917 66.086 L 262.583 66.165 261.811 65.938 C 261.386 65.813,260.748 65.667,260.394 65.614 L 259.750 65.518 260.500 65.762 M164.448 67.022 C 163.274 67.487,162.346 67.901,162.386 67.941 C 162.426 67.981,162.824 67.869,163.271 67.691 C 163.718 67.512,164.682 67.129,165.414 66.839 C 166.145 66.549,166.776 66.279,166.816 66.239 C 167.010 66.046,166.406 66.245,164.448 67.022 M263.333 66.421 C 264.889 66.942,270.598 68.124,270.762 67.960 C 270.800 67.922,270.326 67.798,269.707 67.686 C 269.089 67.573,267.421 67.222,266.000 66.906 C 262.642 66.159,262.441 66.122,263.333 66.421 M158.078 69.903 C 152.012 72.919,145.683 76.905,142.833 79.503 C 142.060 80.208,142.655 79.821,144.272 78.566 C 145.610 77.528,148.459 75.500,148.579 75.500 C 148.616 75.500,149.119 75.177,149.698 74.783 C 152.127 73.129,160.778 68.500,161.441 68.500 C 161.663 68.500,162.292 68.012,162.078 68.005 C 161.984 68.002,160.184 68.856,158.078 69.903 M271.388 68.110 C 271.532 68.254,273.572 68.594,275.167 68.739 C 275.671 68.785,275.258 68.679,274.250 68.505 C 273.242 68.330,272.154 68.138,271.833 68.078 C 271.512 68.019,271.312 68.033,271.388 68.110 M277.000 69.169 C 279.740 70.190,282.487 72.262,284.083 74.512 C 284.358 74.900,284.846 75.448,285.167 75.729 C 287.284 77.589,289.025 79.961,290.012 82.333 C 290.392 83.247,290.833 84.023,290.833 83.779 C 290.833 82.634,287.952 78.146,286.024 76.287 C 285.232 75.523,284.181 74.391,283.688 73.770 C 281.932 71.557,278.589 69.251,276.667 68.926 C 276.232 68.853,276.317 68.915,277.000 69.169 M140.167 81.740 C 137.911 83.753,134.763 86.974,132.988 89.083 C 131.185 91.228,129.947 92.835,130.110 92.822 C 130.187 92.816,130.775 92.131,131.417 91.301 C 134.167 87.744,137.970 83.776,141.488 80.793 C 141.893 80.450,142.193 80.137,142.154 80.099 C 142.115 80.061,141.221 80.799,140.167 81.740 M128.555 94.831 C 126.926 97.152,126.599 97.670,126.775 97.653 C 126.853 97.646,127.517 96.740,128.250 95.640 C 128.983 94.541,129.686 93.497,129.812 93.320 C 129.938 93.144,129.996 93.000,129.940 93.000 C 129.885 93.000,129.262 93.824,128.555 94.831 M125.449 99.625 C 124.232 101.657,123.955 102.167,124.066 102.167 C 124.123 102.167,125.874 99.277,126.616 97.958 C 126.655 97.890,126.649 97.833,126.604 97.833 C 126.558 97.833,126.039 98.640,125.449 99.625 M122.671 104.671 C 122.012 105.968,121.506 107.062,121.546 107.101 C 121.585 107.141,122.153 106.108,122.806 104.806 C 123.460 103.504,123.966 102.410,123.931 102.375 C 123.896 102.340,123.329 103.373,122.671 104.671 M120.760 108.688 C 119.632 111.157,117.351 117.090,118.238 115.250 C 118.370 114.975,118.981 113.475,119.596 111.917 C 120.211 110.358,120.896 108.720,121.118 108.275 C 121.340 107.831,121.491 107.435,121.453 107.397 C 121.414 107.358,121.103 107.940,120.760 108.688 M117.333 117.417 C 117.039 118.299,116.834 119.057,116.878 119.100 C 116.922 119.144,117.199 118.458,117.494 117.577 C 117.789 116.696,117.994 115.938,117.949 115.893 C 117.904 115.849,117.627 116.534,117.333 117.417 M116.458 120.190 C 116.072 121.412,116.100 121.625,116.510 120.583 C 116.690 120.125,116.817 119.641,116.793 119.508 C 116.769 119.375,116.618 119.682,116.458 120.190 M115.760 122.510 C 115.603 123.071,115.506 123.561,115.544 123.599 C 115.582 123.638,115.750 123.218,115.917 122.667 C 116.084 122.115,116.181 121.625,116.133 121.578 C 116.086 121.530,115.918 121.950,115.760 122.510 M115.007 125.341 C 114.810 126.182,114.682 126.905,114.724 126.946 C 114.766 126.988,114.962 126.334,115.159 125.493 C 115.357 124.651,115.484 123.929,115.442 123.887 C 115.401 123.845,115.205 124.499,115.007 125.341 M297.592 130.292 C 297.800 141.985,297.031 150.260,295.238 155.631 C 294.926 156.568,294.936 156.652,295.346 156.545 C 296.066 156.357,297.125 151.936,297.852 146.083 C 298.530 140.626,298.496 124.167,297.807 124.167 C 297.491 124.167,297.486 124.300,297.592 130.292 M114.264 128.621 C 114.108 129.425,113.939 130.233,113.888 130.417 C 113.828 130.634,113.852 130.692,113.957 130.583 C 114.138 130.396,114.744 127.355,114.624 127.235 C 114.582 127.193,114.420 127.816,114.264 128.621 M113.597 131.847 C 113.535 132.319,113.517 132.739,113.558 132.780 C 113.599 132.821,113.685 132.470,113.750 132.000 C 113.815 131.530,113.832 131.110,113.789 131.067 C 113.746 131.024,113.660 131.375,113.597 131.847 M113.094 134.975 C 112.928 136.097,112.825 137.047,112.864 137.086 C 112.974 137.197,113.559 133.426,113.472 133.165 C 113.430 133.039,113.260 133.854,113.094 134.975 M112.457 139.750 C 112.295 141.125,112.172 142.475,112.182 142.750 C 112.193 143.025,112.344 142.162,112.518 140.833 C 112.692 139.504,112.815 138.154,112.792 137.833 C 112.769 137.512,112.618 138.375,112.457 139.750 M112.042 144.250 C 112.044 144.617,112.078 144.747,112.118 144.540 C 112.158 144.332,112.156 144.032,112.115 143.873 C 112.073 143.714,112.040 143.883,112.042 144.250 M111.730 148.282 C 111.463 153.638,111.624 166.598,111.954 166.268 C 112.001 166.221,111.946 164.005,111.831 161.343 C 111.663 157.453,111.664 155.439,111.833 151.080 C 111.950 148.097,112.005 145.616,111.957 145.568 C 111.909 145.520,111.807 146.741,111.730 148.282 M112.042 167.583 C 112.044 167.950,112.078 168.080,112.118 167.873 C 112.158 167.666,112.156 167.366,112.115 167.206 C 112.073 167.047,112.040 167.217,112.042 167.583 M112.264 169.750 C 112.312 170.483,112.457 171.721,112.587 172.500 L 112.823 173.917 112.737 172.750 C 112.690 172.108,112.544 170.871,112.414 170.000 L 112.177 168.417 112.264 169.750 M259.688 170.613 C 259.814 170.766,260.779 171.616,261.833 172.501 C 265.703 175.750,270.103 180.095,272.717 183.250 C 273.628 184.350,274.535 185.438,274.732 185.667 C 274.928 185.896,275.644 186.833,276.323 187.750 C 277.001 188.667,277.755 189.679,277.997 190.000 C 278.239 190.321,279.074 191.558,279.853 192.750 C 281.648 195.498,281.869 195.843,282.099 196.250 C 283.252 198.298,284.728 200.784,284.868 200.917 C 285.367 201.388,282.104 195.827,280.076 192.750 C 275.292 185.492,268.882 178.229,262.417 172.744 C 261.133 171.655,260.023 170.667,259.950 170.549 C 259.877 170.430,259.736 170.333,259.638 170.333 C 259.531 170.333,259.551 170.445,259.688 170.613 M112.930 174.833 C 113.060 176.123,113.458 178.028,113.470 177.417 C 113.475 177.142,113.335 176.242,113.159 175.417 C 112.917 174.286,112.861 174.142,112.930 174.833 M113.536 178.333 C 113.538 178.563,113.597 178.975,113.667 179.250 L 113.794 179.750 113.797 179.250 C 113.799 178.975,113.740 178.563,113.667 178.333 L 113.533 177.917 113.536 178.333 M113.885 180.250 C 113.934 180.433,114.105 181.164,114.267 181.873 C 114.428 182.582,114.589 183.133,114.625 183.097 C 114.732 182.990,114.125 180.264,113.954 180.083 C 113.853 179.976,113.828 180.036,113.885 180.250 M114.667 183.514 C 114.671 184.090,117.145 192.077,117.279 191.943 C 117.327 191.895,117.203 191.382,117.002 190.803 C 116.528 189.435,115.550 186.226,115.167 184.780 C 114.919 183.844,114.665 183.202,114.667 183.514 M117.438 192.500 C 117.594 193.127,117.973 193.952,117.974 193.667 C 117.975 193.529,117.831 193.117,117.655 192.750 C 117.478 192.383,117.381 192.271,117.438 192.500 M118.084 194.323 C 118.861 196.845,122.624 204.655,124.794 208.250 C 126.829 211.622,129.789 216.036,130.382 216.583 C 130.593 216.778,130.725 216.980,127.792 212.619 C 126.531 210.745,125.500 209.166,125.500 209.109 C 125.500 209.053,125.223 208.574,124.885 208.045 C 123.284 205.543,120.552 200.031,118.916 196.000 C 118.174 194.172,117.814 193.447,118.084 194.323 M120.667 217.782 C 116.584 218.465,112.019 222.653,109.394 228.121 C 108.979 228.986,108.681 229.736,108.732 229.787 C 108.782 229.838,108.905 229.663,109.004 229.398 C 111.352 223.124,116.816 218.266,122.000 217.844 L 123.583 217.715 122.333 217.714 C 121.646 217.713,120.896 217.743,120.667 217.782 M124.671 218.147 C 126.018 218.511,127.677 219.339,128.667 220.141 C 129.079 220.476,129.559 220.862,129.732 221.000 C 129.906 221.137,130.281 221.445,130.565 221.683 C 132.734 223.496,137.667 226.840,137.667 226.497 C 137.667 226.410,137.310 226.158,136.875 225.936 C 135.795 225.387,132.973 223.367,130.322 221.247 C 127.404 218.914,125.381 217.825,124.000 217.847 C 123.771 217.850,124.073 217.986,124.671 218.147 M108.177 230.927 C 107.982 231.450,107.860 231.916,107.907 231.962 C 107.954 232.009,108.038 231.906,108.094 231.732 C 108.149 231.559,108.313 231.135,108.457 230.790 C 108.601 230.445,108.677 230.121,108.626 230.070 C 108.574 230.019,108.373 230.405,108.177 230.927 M107.369 233.373 C 106.178 237.499,105.905 241.573,106.485 246.583 C 106.775 249.087,106.803 249.213,106.726 247.667 C 106.678 246.704,106.572 245.429,106.489 244.833 C 106.085 241.905,106.424 237.679,107.344 234.185 C 107.898 232.077,107.917 231.477,107.369 233.373 M297.603 245.127 C 297.546 245.541,297.500 246.321,297.500 246.860 C 297.500 248.025,296.879 253.832,296.665 254.667 C 296.583 254.987,296.437 256.188,296.340 257.333 C 296.143 259.681,296.045 260.452,295.147 266.750 C 294.798 269.197,293.423 275.656,292.883 277.386 C 292.608 278.266,292.649 278.414,293.125 278.263 C 293.444 278.162,293.865 276.711,294.818 272.417 C 295.713 268.389,296.765 261.318,297.087 257.167 C 297.147 256.387,297.260 255.450,297.339 255.083 C 298.040 251.790,298.514 244.586,298.037 244.461 C 297.753 244.387,297.692 244.481,297.603 245.127 M106.938 250.833 C 107.096 253.253,107.453 256.059,107.469 255.000 C 107.476 254.496,107.339 253.033,107.164 251.750 C 106.912 249.900,106.865 249.710,106.938 250.833 M107.617 257.583 C 107.666 258.408,107.735 259.115,107.770 259.153 C 107.880 259.273,107.810 257.785,107.665 256.917 C 107.563 256.303,107.550 256.478,107.617 257.583 M107.901 260.583 C 107.950 260.950,108.123 262.525,108.286 264.083 C 108.450 265.642,108.608 266.706,108.637 266.448 C 108.667 266.190,108.573 265.012,108.429 263.830 C 108.285 262.648,108.166 261.396,108.164 261.049 C 108.163 260.701,108.083 260.304,107.988 260.167 C 107.859 259.982,107.837 260.091,107.901 260.583 M108.705 267.833 C 108.705 268.154,108.740 268.285,108.782 268.125 C 108.823 267.965,108.823 267.702,108.782 267.542 C 108.740 267.381,108.705 267.512,108.705 267.833 M108.867 269.083 C 108.864 269.450,108.958 270.462,109.075 271.333 C 109.238 272.547,109.290 272.722,109.296 272.083 C 109.301 271.625,109.207 270.612,109.088 269.833 C 108.954 268.956,108.870 268.670,108.867 269.083 M109.531 275.000 C 109.529 275.321,109.663 276.558,109.827 277.750 C 109.992 278.942,110.132 279.617,110.139 279.250 C 110.147 278.883,110.013 277.646,109.843 276.500 C 109.673 275.354,109.532 274.679,109.531 275.000 M110.198 280.417 C 110.189 281.158,110.791 284.845,110.814 284.186 C 110.825 283.876,110.756 283.163,110.662 282.603 C 110.236 280.078,110.204 279.926,110.198 280.417 M110.865 285.167 C 110.861 285.396,110.957 286.146,111.078 286.833 C 111.199 287.521,111.301 287.858,111.305 287.583 C 111.309 287.308,111.213 286.558,111.092 285.917 C 110.970 285.275,110.868 284.938,110.865 285.167 M111.443 288.917 C 111.605 290.261,111.962 292.116,111.982 291.711 C 111.992 291.507,111.915 290.794,111.812 290.128 C 111.581 288.637,111.298 287.708,111.443 288.917 M112.190 293.250 C 112.184 293.433,112.318 294.258,112.487 295.083 C 112.656 295.908,112.800 296.396,112.806 296.167 C 112.813 295.938,112.679 295.112,112.509 294.333 C 112.340 293.554,112.196 293.067,112.190 293.250 M112.940 297.333 C 113.067 298.405,113.796 301.813,113.816 301.427 C 113.836 301.048,113.565 299.592,113.148 297.833 C 112.961 297.047,112.884 296.861,112.940 297.333 M113.885 302.250 C 113.934 302.433,114.104 303.203,114.262 303.961 C 114.420 304.719,114.586 305.303,114.630 305.258 C 114.750 305.139,114.142 302.278,113.956 302.083 C 113.852 301.976,113.827 302.035,113.885 302.250 M114.864 306.417 C 114.866 306.896,115.290 308.482,115.310 308.083 C 115.319 307.900,115.223 307.375,115.095 306.917 C 114.967 306.458,114.864 306.233,114.864 306.417 M115.576 309.352 C 115.768 310.329,116.957 312.829,117.865 314.162 C 118.854 315.615,120.500 317.550,120.492 317.250 C 120.489 317.158,120.074 316.633,119.569 316.083 C 118.093 314.475,116.980 312.634,115.991 310.167 C 115.716 309.479,115.529 309.113,115.576 309.352 M192.169 347.474 C 192.181 347.977,192.480 348.005,197.428 347.961 C 201.077 347.929,202.417 347.865,202.417 347.723 C 202.417 347.582,201.022 347.507,197.292 347.447 C 194.473 347.402,192.168 347.414,192.169 347.474 " stroke="none" fill="#8241b7" fill-rule="evenodd"></path><path id="path4" d="M145.375 24.625 C 173.677 24.648,219.990 24.648,248.292 24.625 C 276.594 24.602,253.438 24.583,196.833 24.583 C 140.229 24.583,117.073 24.602,145.375 24.625 M90.625 24.784 C 90.831 24.824,91.169 24.824,91.375 24.784 C 91.581 24.745,91.412 24.712,91.000 24.712 C 90.587 24.712,90.419 24.745,90.625 24.784 M302.460 24.785 C 302.668 24.824,302.968 24.823,303.127 24.781 C 303.286 24.739,303.117 24.707,302.750 24.709 C 302.383 24.711,302.253 24.745,302.460 24.785 M88.542 24.948 C 88.702 24.990,88.965 24.990,89.125 24.948 C 89.285 24.906,89.154 24.872,88.833 24.872 C 88.513 24.872,88.381 24.906,88.542 24.948 M304.627 24.951 C 304.834 24.991,305.134 24.990,305.294 24.948 C 305.453 24.906,305.283 24.874,304.917 24.875 C 304.550 24.877,304.420 24.911,304.627 24.951 M315.083 28.833 C 315.535 29.292,315.942 29.667,315.987 29.667 C 316.033 29.667,315.701 29.292,315.250 28.833 C 314.799 28.375,314.392 28.000,314.346 28.000 C 314.300 28.000,314.632 28.375,315.083 28.833 M112.625 36.292 C 125.756 36.315,147.244 36.315,160.375 36.292 C 173.506 36.268,162.762 36.249,136.500 36.249 C 110.237 36.249,99.494 36.268,112.625 36.292 M233.888 36.292 C 247.073 36.315,268.598 36.315,281.722 36.292 C 294.846 36.268,284.058 36.249,257.750 36.249 C 231.442 36.249,220.704 36.268,233.888 36.292 M85.561 36.582 C 83.318 37.070,81.296 38.941,81.341 40.485 C 81.345 40.631,81.491 40.386,81.665 39.941 C 82.521 37.748,83.871 36.884,87.003 36.521 C 88.066 36.398,88.127 36.375,87.417 36.368 C 86.958 36.364,86.123 36.460,85.561 36.582 M184.847 36.394 C 184.885 36.427,185.479 36.494,186.167 36.543 C 186.899 36.595,187.210 36.578,186.917 36.502 C 186.411 36.371,184.719 36.282,184.847 36.394 M208.208 36.453 C 208.460 36.491,208.873 36.491,209.125 36.453 C 209.377 36.415,209.171 36.383,208.667 36.383 C 208.162 36.383,207.956 36.415,208.208 36.453 M306.014 36.394 C 306.052 36.428,306.683 36.496,307.417 36.547 C 308.374 36.613,308.562 36.599,308.083 36.496 C 307.421 36.353,305.881 36.278,306.014 36.394 M188.083 36.900 C 189.597 37.379,190.783 38.420,191.178 39.619 C 191.282 39.932,191.401 40.155,191.443 40.113 C 192.076 39.480,189.025 36.643,187.750 36.679 C 187.567 36.685,187.717 36.784,188.083 36.900 M309.621 36.986 C 311.278 37.602,312.101 38.496,312.680 40.306 C 312.846 40.825,312.986 41.122,312.991 40.965 C 313.043 39.313,311.080 37.106,309.250 36.758 C 308.975 36.705,309.142 36.808,309.621 36.986 M204.829 37.276 C 203.415 38.221,202.301 40.230,202.348 41.750 C 202.353 41.933,202.491 41.540,202.655 40.875 C 203.037 39.319,203.721 38.221,204.732 37.542 C 205.175 37.244,205.471 37.000,205.389 37.000 C 205.308 37.000,205.055 37.124,204.829 37.276 M81.112 41.315 C 81.050 41.623,81.008 42.034,81.018 42.229 C 81.028 42.424,81.103 42.246,81.184 41.833 C 81.265 41.421,81.307 41.010,81.278 40.919 C 81.248 40.829,81.174 41.007,81.112 41.315 M191.784 41.833 C 191.836 42.337,191.906 42.781,191.939 42.819 C 192.056 42.953,191.966 41.746,191.828 41.333 C 191.738 41.064,191.722 41.242,191.784 41.833 M202.209 42.750 C 202.211 43.117,202.245 43.247,202.285 43.040 C 202.324 42.832,202.323 42.532,202.281 42.373 C 202.239 42.214,202.207 42.383,202.209 42.750 M313.214 43.083 C 313.216 43.542,313.248 43.709,313.286 43.456 C 313.325 43.203,313.324 42.828,313.284 42.623 C 313.244 42.418,313.213 42.625,313.214 43.083 M80.885 43.583 C 80.886 44.133,80.917 44.338,80.954 44.039 C 80.991 43.739,80.990 43.289,80.952 43.039 C 80.914 42.788,80.884 43.033,80.885 43.583 M192.055 44.250 C 192.055 44.892,192.086 45.134,192.122 44.788 C 192.158 44.442,192.157 43.917,192.120 43.621 C 192.083 43.325,192.054 43.608,192.055 44.250 M202.061 45.083 C 202.061 46.000,202.089 46.354,202.123 45.869 C 202.157 45.385,202.156 44.635,202.122 44.203 C 202.088 43.770,202.060 44.167,202.061 45.083 M73.039 44.500 C 73.039 44.821,73.073 44.952,73.115 44.792 C 73.157 44.631,73.157 44.369,73.115 44.208 C 73.073 44.048,73.039 44.179,73.039 44.500 M313.415 80.167 C 313.415 100.104,313.435 108.260,313.458 98.292 C 313.482 88.323,313.482 72.010,313.458 62.042 C 313.435 52.073,313.415 60.229,313.415 80.167 M80.748 80.250 C 80.748 99.775,80.768 107.738,80.792 97.945 C 80.815 88.152,80.815 72.177,80.792 62.445 C 80.768 52.713,80.748 60.725,80.748 80.250 M192.243 52.917 C 192.243 56.950,192.265 58.576,192.292 56.530 C 192.318 54.485,192.318 51.185,192.291 49.197 C 192.265 47.209,192.243 48.883,192.243 52.917 M320.879 47.333 C 320.879 47.746,320.911 47.915,320.951 47.708 C 320.991 47.502,320.991 47.165,320.951 46.958 C 320.911 46.752,320.879 46.921,320.879 47.333 M72.712 48.000 C 72.712 48.413,72.745 48.581,72.784 48.375 C 72.824 48.169,72.824 47.831,72.784 47.625 C 72.745 47.419,72.712 47.587,72.712 48.000 M201.873 53.708 L 201.833 59.333 202.292 59.311 C 202.681 59.291,202.694 59.277,202.377 59.216 L 202.004 59.144 201.958 53.614 L 201.912 48.083 201.873 53.708 M321.220 52.000 C 321.220 52.596,321.250 52.840,321.287 52.542 C 321.324 52.244,321.324 51.756,321.287 51.458 C 321.250 51.160,321.220 51.404,321.220 52.000 M72.385 53.083 C 72.386 53.633,72.417 53.838,72.454 53.539 C 72.491 53.239,72.490 52.789,72.452 52.539 C 72.414 52.288,72.384 52.533,72.385 53.083 M321.379 55.833 C 321.379 56.246,321.411 56.415,321.451 56.208 C 321.491 56.002,321.491 55.665,321.451 55.458 C 321.411 55.252,321.379 55.421,321.379 55.833 M72.218 57.750 C 72.219 58.300,72.250 58.505,72.287 58.205 C 72.325 57.906,72.324 57.456,72.286 57.205 C 72.248 56.955,72.217 57.200,72.218 57.750 M321.564 60.750 C 321.564 61.850,321.591 62.278,321.624 61.702 C 321.656 61.125,321.656 60.225,321.623 59.702 C 321.590 59.178,321.563 59.650,321.564 60.750 M205.208 59.115 C 205.369 59.157,205.631 59.157,205.792 59.115 C 205.952 59.073,205.821 59.039,205.500 59.039 C 205.179 59.039,205.048 59.073,205.208 59.115 M218.542 59.115 C 218.702 59.157,218.965 59.157,219.125 59.115 C 219.285 59.073,219.154 59.039,218.833 59.039 C 218.512 59.039,218.381 59.073,218.542 59.115 M72.065 63.833 C 72.065 65.071,72.092 65.577,72.124 64.958 C 72.156 64.340,72.156 63.327,72.124 62.708 C 72.092 62.090,72.065 62.596,72.065 63.833 M321.750 200.167 C 321.750 272.262,321.769 301.756,321.792 265.708 C 321.815 229.660,321.815 170.673,321.792 134.625 C 321.769 98.577,321.750 128.071,321.750 200.167 M71.916 200.500 C 71.916 267.004,71.935 294.210,71.958 260.958 C 71.981 227.706,71.981 173.294,71.958 140.042 C 71.935 106.790,71.916 133.996,71.916 200.500 M80.885 116.750 C 80.886 117.300,80.917 117.505,80.954 117.205 C 80.991 116.906,80.990 116.456,80.952 116.205 C 80.914 115.955,80.884 116.200,80.885 116.750 M313.189 117.250 C 313.073 120.027,311.922 122.367,310.317 123.091 C 309.958 123.253,309.694 123.416,309.732 123.454 C 309.890 123.612,311.149 122.810,311.700 122.201 C 312.619 121.183,313.485 118.384,313.288 117.064 C 313.230 116.673,313.211 116.707,313.189 117.250 M81.039 118.333 C 81.039 118.654,81.073 118.785,81.115 118.625 C 81.157 118.465,81.157 118.202,81.115 118.042 C 81.073 117.881,81.039 118.013,81.039 118.333 M81.261 119.548 C 81.541 121.511,83.532 123.698,85.000 123.656 C 85.137 123.652,84.875 123.505,84.417 123.328 C 82.828 122.716,81.984 121.700,81.399 119.698 C 81.193 118.995,81.179 118.980,81.261 119.548 M308.913 123.598 C 308.819 123.637,308.294 123.741,307.746 123.828 L 306.750 123.987 307.762 123.916 C 308.647 123.854,309.996 123.517,309.333 123.524 C 309.196 123.525,309.007 123.558,308.913 123.598 M85.667 123.830 C 86.078 123.965,87.454 124.056,87.319 123.940 C 87.281 123.907,86.800 123.838,86.250 123.787 C 85.629 123.729,85.408 123.745,85.667 123.830 M94.542 124.125 C 98.369 124.150,104.631 124.150,108.458 124.125 C 112.285 124.100,109.154 124.080,101.500 124.080 C 93.846 124.080,90.715 124.100,94.542 124.125 M300.458 124.125 C 301.581 124.153,303.419 124.153,304.542 124.125 C 305.665 124.096,304.746 124.072,302.500 124.072 C 300.254 124.072,299.335 124.096,300.458 124.125 M295.667 156.542 C 295.667 156.610,297.748 156.667,300.292 156.667 C 310.806 156.668,311.841 157.421,312.325 165.422 C 312.558 169.254,312.558 231.745,312.325 235.583 C 311.863 243.226,310.895 244.068,302.250 244.337 L 298.083 244.467 302.333 244.411 C 310.273 244.308,311.652 243.403,312.361 237.831 C 312.682 235.309,312.689 165.324,312.369 163.083 C 311.712 158.492,310.416 157.137,306.242 156.678 C 304.324 156.467,295.666 156.356,295.667 156.542 M86.833 157.150 C 86.119 157.245,107.205 157.214,110.167 157.116 C 110.946 157.090,106.183 157.064,99.583 157.059 C 92.983 157.054,87.246 157.095,86.833 157.150 M84.267 157.746 C 82.646 158.412,81.517 159.856,81.267 161.583 C 81.174 162.226,81.179 162.221,81.401 161.460 C 82.060 159.200,83.072 158.165,85.171 157.601 C 85.689 157.461,85.903 157.352,85.667 157.348 C 85.438 157.344,84.807 157.523,84.267 157.746 M111.545 160.667 C 111.545 161.079,111.578 161.248,111.618 161.042 C 111.657 160.835,111.657 160.498,111.618 160.292 C 111.578 160.085,111.545 160.254,111.545 160.667 M81.039 162.833 C 81.039 163.154,81.073 163.285,81.115 163.125 C 81.157 162.965,81.157 162.702,81.115 162.542 C 81.073 162.381,81.039 162.512,81.039 162.833 M80.756 165.542 C 80.490 170.427,80.754 238.173,81.044 239.583 C 81.758 243.049,83.481 244.560,86.917 244.735 C 87.558 244.768,87.858 244.765,87.583 244.729 C 83.867 244.238,82.502 243.444,81.703 241.308 C 80.901 239.166,80.917 239.965,80.917 200.542 C 80.917 180.169,80.905 163.500,80.892 163.500 C 80.878 163.500,80.817 164.419,80.756 165.542 M106.167 244.582 C 106.167 244.798,105.026 244.836,97.292 244.875 L 88.417 244.920 97.375 244.960 C 106.236 245.000,106.333 244.996,106.333 244.667 C 106.333 244.483,106.296 244.333,106.250 244.333 C 106.204 244.333,106.167 244.445,106.167 244.582 M95.292 277.792 C 97.973 277.817,102.360 277.817,105.042 277.792 C 107.723 277.766,105.529 277.745,100.167 277.745 C 94.804 277.745,92.610 277.766,95.292 277.792 M87.458 277.954 C 87.756 277.991,88.244 277.991,88.542 277.954 C 88.840 277.917,88.596 277.887,88.000 277.887 C 87.404 277.887,87.160 277.917,87.458 277.954 M84.750 278.333 C 84.325 278.516,84.763 278.516,85.333 278.333 C 85.668 278.226,85.685 278.199,85.417 278.195 C 85.233 278.192,84.933 278.255,84.750 278.333 M296.042 278.291 C 297.669 278.319,300.331 278.319,301.958 278.291 C 303.585 278.264,302.254 278.242,299.000 278.242 C 295.746 278.242,294.415 278.264,296.042 278.291 M306.461 278.454 C 306.761 278.491,307.211 278.490,307.461 278.452 C 307.712 278.414,307.467 278.384,306.917 278.385 C 306.367 278.386,306.162 278.417,306.461 278.454 M82.626 279.625 C 82.028 280.240,81.340 281.510,81.341 282.000 C 81.341 282.137,81.523 281.807,81.746 281.265 C 81.969 280.723,82.432 279.992,82.776 279.640 C 83.120 279.288,83.363 279.000,83.318 279.000 C 83.272 279.000,82.961 279.281,82.626 279.625 M310.857 279.335 C 311.927 279.901,313.167 281.524,313.167 282.359 C 313.167 282.467,313.214 282.508,313.272 282.450 C 313.792 281.930,311.318 278.963,310.402 279.007 C 310.318 279.011,310.523 279.159,310.857 279.335 M313.446 283.417 C 313.499 283.875,313.571 284.281,313.605 284.319 C 313.722 284.451,313.633 283.416,313.492 283.000 C 313.396 282.719,313.382 282.855,313.446 283.417 M81.039 283.667 C 81.039 283.987,81.073 284.119,81.115 283.958 C 81.157 283.798,81.157 283.535,81.115 283.375 C 81.073 283.215,81.039 283.346,81.039 283.667 M80.883 285.167 C 80.883 285.671,80.915 285.877,80.953 285.625 C 80.991 285.373,80.991 284.960,80.953 284.708 C 80.915 284.456,80.883 284.662,80.883 285.167 M313.714 285.250 C 313.716 285.708,313.748 285.876,313.786 285.623 C 313.825 285.369,313.824 284.994,313.784 284.789 C 313.744 284.584,313.713 284.792,313.714 285.250 M80.748 321.750 C 80.748 341.275,80.768 349.238,80.792 339.445 C 80.815 329.652,80.815 313.677,80.792 303.945 C 80.768 294.213,80.748 302.225,80.748 321.750 M313.896 288.167 C 313.896 289.221,313.923 289.652,313.956 289.125 C 313.990 288.598,313.990 287.735,313.956 287.208 C 313.923 286.681,313.896 287.112,313.896 288.167 M72.066 336.750 C 72.066 338.033,72.092 338.536,72.124 337.868 C 72.156 337.199,72.155 336.149,72.123 335.534 C 72.091 334.920,72.065 335.467,72.066 336.750 M321.564 339.750 C 321.564 340.850,321.591 341.278,321.624 340.702 C 321.656 340.125,321.656 339.225,321.623 338.702 C 321.590 338.178,321.563 338.650,321.564 339.750 M72.218 342.750 C 72.219 343.300,72.250 343.505,72.287 343.205 C 72.325 342.906,72.324 342.456,72.286 342.205 C 72.248 341.955,72.217 342.200,72.218 342.750 M321.379 344.667 C 321.379 345.079,321.411 345.248,321.451 345.042 C 321.491 344.835,321.491 344.498,321.451 344.292 C 321.411 344.085,321.379 344.254,321.379 344.667 M72.385 347.417 C 72.386 347.967,72.417 348.172,72.454 347.872 C 72.491 347.572,72.490 347.122,72.452 346.872 C 72.414 346.622,72.384 346.867,72.385 347.417 M321.220 348.500 C 321.220 349.096,321.250 349.340,321.287 349.042 C 321.324 348.744,321.324 348.256,321.287 347.958 C 321.250 347.660,321.220 347.904,321.220 348.500 M192.239 352.083 C 192.239 354.467,192.263 355.418,192.291 354.198 C 192.320 352.979,192.320 351.029,192.291 349.865 C 192.263 348.702,192.239 349.700,192.239 352.083 M202.405 351.500 C 202.405 353.563,202.429 354.406,202.458 353.375 C 202.487 352.344,202.487 350.656,202.458 349.625 C 202.429 348.594,202.405 349.438,202.405 351.500 M72.712 352.500 C 72.712 352.912,72.745 353.081,72.784 352.875 C 72.824 352.669,72.824 352.331,72.784 352.125 C 72.745 351.919,72.712 352.087,72.712 352.500 M320.879 353.167 C 320.879 353.579,320.911 353.748,320.951 353.542 C 320.991 353.335,320.991 352.998,320.951 352.792 C 320.911 352.585,320.879 352.754,320.879 353.167 M313.896 356.333 C 313.896 357.387,313.923 357.819,313.956 357.292 C 313.990 356.765,313.990 355.902,313.956 355.375 C 313.923 354.848,313.896 355.279,313.896 356.333 M73.039 356.000 C 73.039 356.321,73.073 356.452,73.115 356.292 C 73.157 356.131,73.157 355.869,73.115 355.708 C 73.073 355.548,73.039 355.679,73.039 356.000 M192.055 357.750 C 192.055 358.392,192.086 358.634,192.122 358.288 C 192.158 357.942,192.157 357.417,192.120 357.121 C 192.083 356.825,192.054 357.108,192.055 357.750 M202.556 357.833 C 202.556 358.521,202.585 358.802,202.621 358.458 C 202.657 358.115,202.657 357.552,202.621 357.208 C 202.585 356.865,202.556 357.146,202.556 357.833 M80.883 358.333 C 80.883 358.837,80.915 359.044,80.953 358.792 C 80.991 358.540,80.991 358.127,80.953 357.875 C 80.915 357.623,80.883 357.829,80.883 358.333 M313.714 359.250 C 313.716 359.708,313.748 359.876,313.786 359.623 C 313.825 359.369,313.824 358.994,313.784 358.789 C 313.744 358.584,313.713 358.792,313.714 359.250 M191.875 359.583 C 191.877 359.950,191.911 360.080,191.951 359.873 C 191.991 359.666,191.990 359.366,191.948 359.206 C 191.906 359.047,191.874 359.217,191.875 359.583 M202.712 359.833 C 202.712 360.246,202.745 360.415,202.784 360.208 C 202.824 360.002,202.824 359.665,202.784 359.458 C 202.745 359.252,202.712 359.421,202.712 359.833 M81.039 359.833 C 81.039 360.154,81.073 360.285,81.115 360.125 C 81.157 359.965,81.157 359.702,81.115 359.542 C 81.073 359.381,81.039 359.512,81.039 359.833 M191.592 360.951 C 191.266 362.747,190.376 363.991,188.917 364.688 C 188.367 364.951,188.013 365.166,188.131 365.167 C 188.522 365.167,189.911 364.371,190.357 363.891 C 191.088 363.103,192.080 360.691,191.791 360.403 C 191.745 360.356,191.655 360.603,191.592 360.951 M313.271 361.688 C 313.132 362.382,313.267 362.517,313.417 361.833 C 313.480 361.545,313.497 361.275,313.455 361.232 C 313.412 361.190,313.329 361.395,313.271 361.688 M81.339 361.500 C 81.325 362.964,83.946 365.379,85.488 365.324 C 85.632 365.319,85.288 365.168,84.723 364.989 C 83.341 364.551,82.288 363.582,81.747 362.250 C 81.524 361.700,81.340 361.363,81.339 361.500 M312.757 363.150 C 312.464 363.801,311.792 364.532,311.005 365.058 C 310.778 365.209,310.674 365.333,310.773 365.333 C 311.321 365.333,313.418 362.862,313.121 362.565 C 313.083 362.528,312.919 362.791,312.757 363.150 M203.338 362.759 C 203.318 363.450,205.370 365.505,206.074 365.498 C 206.171 365.498,205.871 365.280,205.409 365.014 C 204.659 364.584,204.082 363.942,203.525 362.917 C 203.425 362.733,203.341 362.662,203.338 362.759 M87.713 365.623 C 88.152 365.657,88.827 365.657,89.213 365.622 C 89.600 365.587,89.242 365.559,88.417 365.559 C 87.592 365.560,87.275 365.588,87.713 365.623 M183.792 365.622 C 184.181 365.657,184.819 365.657,185.208 365.622 C 185.598 365.587,185.279 365.558,184.500 365.558 C 183.721 365.558,183.402 365.587,183.792 365.622 M206.583 365.667 C 206.767 365.745,207.067 365.808,207.250 365.805 C 207.518 365.801,207.502 365.774,207.167 365.667 C 206.597 365.484,206.159 365.484,206.583 365.667 M207.960 365.951 C 208.168 365.991,208.468 365.990,208.627 365.948 C 208.786 365.906,208.617 365.874,208.250 365.875 C 207.883 365.877,207.753 365.911,207.960 365.951 M307.960 365.951 C 308.168 365.991,308.468 365.990,308.627 365.948 C 308.786 365.906,308.617 365.874,308.250 365.875 C 307.883 365.877,307.753 365.911,307.960 365.951 M209.797 366.123 C 210.282 366.157,211.032 366.156,211.464 366.122 C 211.896 366.088,211.500 366.060,210.583 366.061 C 209.667 366.061,209.313 366.089,209.797 366.123 M304.958 366.123 C 305.440 366.157,306.227 366.157,306.708 366.123 C 307.190 366.089,306.796 366.062,305.833 366.062 C 304.871 366.062,304.477 366.089,304.958 366.123 M314.991 371.792 L 314.417 372.417 315.042 371.842 C 315.385 371.526,315.667 371.245,315.667 371.217 C 315.667 371.090,315.526 371.210,314.991 371.792 M90.625 375.787 C 90.923 375.824,91.410 375.824,91.708 375.787 C 92.006 375.750,91.763 375.720,91.167 375.720 C 90.571 375.720,90.327 375.750,90.625 375.787 M301.958 375.787 C 302.256 375.824,302.744 375.824,303.042 375.787 C 303.340 375.750,303.096 375.720,302.500 375.720 C 301.904 375.720,301.660 375.750,301.958 375.787 " stroke="none" fill="#e2824c" fill-rule="evenodd"></path></g></svg>