<svg id="svg" version="1.1" xmlns="http://www.w3.org/2000/svg" xmlns:xlink="http://www.w3.org/1999/xlink" width="400" height="400" viewBox="0, 0, 400,400"><g id="svgg"><path id="path0" d="M204.750 61.764 C 204.383 61.798,202.808 61.907,201.250 62.006 C 145.883 65.529,115.618 98.628,115.611 155.667 C 115.607 190.740,127.773 214.425,157.083 236.401 C 159.678 238.346,159.636 238.275,158.127 238.207 C 148.781 237.786,140.004 233.917,129.674 225.663 C 126.758 223.333,126.272 223.025,124.845 222.602 C 119.268 220.948,113.289 226.994,110.847 236.754 C 110.041 239.976,110.015 241.653,110.665 248.502 C 113.483 278.167,115.348 291.792,118.526 305.917 C 119.798 311.570,120.771 313.289,124.311 316.143 C 139.515 328.398,160.385 335.915,185.083 338.032 C 188.410 338.317,199.985 338.317,203.083 338.032 C 252.528 333.482,283.148 302.547,288.425 251.810 C 288.651 249.642,288.906 247.496,288.993 247.039 C 289.943 242.029,290.018 233.029,289.159 227.089 C 285.291 200.335,264.210 173.196,239.250 162.838 C 236.725 161.790,232.317 159.615,232.458 159.487 C 232.527 159.425,233.933 159.182,235.583 158.948 C 245.029 157.606,246.333 157.677,262.537 160.405 C 276.311 162.724,276.166 162.719,278.762 161.028 C 285.210 156.829,289.121 146.525,289.686 132.250 C 290.013 123.959,289.720 116.258,288.502 101.167 C 288.409 100.021,288.183 96.346,287.998 93.000 C 287.472 83.445,286.406 80.426,282.579 77.661 C 282.393 77.527,281.884 76.912,281.448 76.295 C 279.390 73.385,276.870 71.730,273.874 71.320 C 271.380 70.979,266.403 69.977,262.679 69.066 C 245.996 64.987,235.464 63.068,224.250 62.064 C 221.614 61.828,206.560 61.597,204.750 61.764 " stroke="none" fill="#f36304" fill-rule="evenodd"></path><path id="path1" d="M80.667 12.245 C 78.888 12.429,78.126 12.562,76.167 13.029 C 71.075 14.243,67.776 17.359,66.046 22.587 C 64.199 28.167,63.570 33.011,62.960 46.333 C 62.652 53.054,62.653 339.311,62.961 346.000 C 63.319 353.778,63.644 358.095,64.093 361.000 C 64.613 364.368,64.718 364.959,65.024 366.250 C 66.499 372.459,69.006 376.293,72.691 377.974 C 75.843 379.411,77.854 379.823,83.401 380.168 C 87.035 380.394,303.799 380.394,307.432 380.168 C 313.104 379.816,315.272 379.369,318.150 377.960 C 319.523 377.288,321.006 376.169,321.700 375.283 C 322.001 374.898,322.304 374.558,322.374 374.528 C 322.443 374.497,322.500 374.366,322.500 374.236 C 322.500 374.106,322.563 374.000,322.639 374.000 C 322.853 374.000,324.417 370.889,324.818 369.667 C 326.063 365.877,326.524 363.338,327.239 356.333 C 328.146 347.450,328.169 343.372,328.170 196.083 C 328.170 40.973,328.185 42.849,326.827 32.083 C 325.405 20.813,322.283 15.314,316.258 13.469 C 314.272 12.860,311.889 12.409,309.417 12.174 C 306.628 11.909,83.241 11.977,80.667 12.245 M302.583 45.137 C 306.505 45.539,307.797 45.957,308.358 47.002 C 308.820 47.865,308.836 65.580,308.375 66.494 C 307.393 68.438,304.390 68.659,278.752 68.682 C 263.732 68.695,261.688 68.726,262.417 68.930 C 264.274 69.450,269.270 70.501,272.241 70.997 C 277.347 71.849,278.990 72.804,281.658 76.473 C 282.136 77.129,282.587 77.667,282.662 77.667 C 283.364 77.667,285.859 81.040,286.688 83.110 C 287.079 84.088,287.388 84.570,287.927 85.044 C 289.938 86.814,291.589 90.268,291.987 93.534 C 292.147 94.847,292.655 103.833,292.720 106.500 L 292.750 107.750 294.417 107.695 C 299.277 107.534,306.124 108.162,307.416 108.886 C 308.805 109.666,308.750 109.223,308.750 119.583 C 308.750 130.835,308.937 130.249,305.124 130.908 C 303.585 131.173,295.104 131.575,294.460 131.412 C 294.088 131.318,294.084 131.334,294.138 132.764 C 294.714 148.045,291.320 160.252,284.773 166.450 C 281.330 169.708,281.677 169.694,266.667 167.202 C 253.066 164.945,250.916 164.702,247.019 164.984 C 245.700 165.079,244.596 165.181,244.567 165.211 C 244.538 165.240,245.501 165.824,246.709 166.507 C 250.918 168.890,255.708 172.277,259.723 175.711 L 261.362 177.113 280.390 177.220 C 305.121 177.359,306.930 177.501,307.955 179.377 C 308.449 180.281,308.404 198.269,307.906 198.936 C 306.642 200.629,304.875 200.842,290.956 200.980 L 280.495 201.083 281.042 201.917 C 288.014 212.527,292.756 225.296,293.824 236.333 C 294.234 240.561,294.141 250.162,293.678 251.389 L 293.543 251.750 297.480 251.782 C 304.473 251.839,306.822 252.278,307.906 253.731 C 308.404 254.398,308.449 272.386,307.955 273.290 C 307.133 274.793,304.043 275.279,294.726 275.371 L 290.034 275.417 289.832 276.333 C 288.913 280.506,286.387 287.905,284.171 292.917 C 277.120 308.862,266.834 321.258,253.258 330.167 L 251.607 331.250 276.262 331.353 C 306.508 331.480,307.375 331.539,308.375 333.509 C 308.837 334.419,308.820 352.135,308.357 353.000 C 307.647 354.324,305.607 354.744,298.660 354.996 C 292.423 355.223,97.911 355.223,91.674 354.996 C 84.857 354.749,82.776 354.338,82.003 353.088 C 81.496 352.268,81.477 334.230,81.982 333.402 C 83.122 331.533,84.004 331.478,114.971 331.353 L 140.525 331.250 138.971 330.348 C 135.203 328.163,129.457 324.105,127.031 321.915 C 125.605 320.629,124.117 318.157,123.485 316.025 C 123.366 315.621,123.099 315.187,122.883 315.046 C 121.258 313.981,119.447 310.460,118.659 306.833 C 116.363 296.254,114.544 285.531,113.649 277.292 L 113.454 275.500 106.185 275.494 C 88.279 275.479,83.362 275.128,81.864 273.755 L 81.250 273.192 81.250 263.608 C 81.250 254.196,81.256 254.016,81.593 253.565 C 82.768 251.991,86.127 251.667,101.264 251.667 C 106.497 251.667,110.812 251.633,110.853 251.592 C 110.894 251.550,110.796 250.294,110.636 248.800 C 109.609 239.259,110.614 233.836,114.482 228.054 C 118.744 221.682,123.601 220.629,128.851 224.938 C 137.085 231.696,144.400 235.661,151.559 237.247 C 154.290 237.852,154.295 237.829,151.882 235.720 C 144.234 229.034,137.583 221.278,132.827 213.500 C 132.070 212.262,130.684 210.050,129.747 208.583 C 128.215 206.186,125.500 201.429,125.500 201.141 C 125.500 201.079,116.969 200.993,106.542 200.950 C 85.567 200.865,84.244 200.800,82.384 199.765 C 81.119 199.061,81.157 199.415,81.206 188.862 L 81.250 179.474 81.864 178.912 C 83.381 177.522,88.548 177.208,110.388 177.177 L 117.360 177.167 117.267 176.708 C 115.037 165.641,114.960 147.813,117.084 134.261 C 117.313 132.800,117.500 131.582,117.500 131.553 C 117.500 131.524,112.456 131.499,106.292 131.498 C 86.917 131.494,83.039 131.165,81.984 129.436 C 81.485 128.617,81.494 110.535,81.994 109.715 C 83.105 107.893,86.107 107.667,109.254 107.667 L 125.091 107.667 125.980 105.875 C 134.430 88.844,148.962 75.776,166.917 69.062 C 167.736 68.755,167.081 68.748,128.500 68.652 C 84.697 68.543,84.708 68.543,82.717 67.313 C 81.634 66.644,81.667 66.973,81.667 56.736 C 81.667 47.718,81.676 47.441,82.003 46.912 C 82.791 45.637,84.923 45.215,91.667 45.002 C 98.256 44.794,300.499 44.923,302.583 45.137 " stroke="none" fill="#3515db" fill-rule="evenodd"></path><path id="path2" d="M88.667 45.181 C 84.616 45.441,82.702 45.949,82.056 46.935 C 81.552 47.705,81.586 65.918,82.093 66.613 C 82.832 67.625,84.357 68.040,88.417 68.331 C 93.648 68.707,168.369 68.547,169.356 68.158 C 173.802 66.405,183.252 64.109,189.917 63.161 C 211.231 60.130,230.118 61.341,255.500 67.365 L 259.917 68.413 279.333 68.467 C 304.904 68.538,306.893 68.410,308.233 66.613 C 308.782 65.876,308.784 47.629,308.235 46.887 C 307.490 45.879,305.766 45.451,301.333 45.173 C 298.029 44.966,91.903 44.974,88.667 45.181 M88.528 108.016 C 84.673 108.249,82.834 108.739,82.093 109.732 C 81.577 110.423,81.553 128.626,82.067 129.385 C 83.191 131.042,86.586 131.324,105.523 131.330 L 117.629 131.333 117.745 130.542 C 118.541 125.139,121.557 115.711,124.944 108.042 C 125.050 107.800,92.484 107.778,88.528 108.016 M293.334 108.542 C 293.335 108.931,293.445 110.600,293.579 112.250 C 294.033 117.835,294.317 122.734,294.433 126.973 C 294.527 130.428,294.592 131.212,294.789 131.288 C 295.213 131.451,303.862 131.003,305.303 130.744 C 306.909 130.456,307.873 130.015,308.289 129.380 C 308.784 128.626,308.737 110.402,308.239 109.721 C 307.296 108.431,303.424 107.833,296.006 107.833 L 293.333 107.833 293.334 108.542 M89.583 177.508 C 83.550 177.757,81.796 178.284,81.338 179.983 C 80.951 181.420,81.186 198.390,81.601 198.946 C 82.392 200.007,83.780 200.386,87.917 200.670 C 91.436 200.912,125.264 200.984,125.216 200.750 C 125.197 200.658,124.693 199.518,124.095 198.216 C 121.295 192.115,119.083 185.375,117.624 178.500 L 117.394 177.417 104.988 177.401 C 98.166 177.392,91.233 177.440,89.583 177.508 M263.699 179.323 C 268.247 183.671,272.332 188.590,276.581 194.833 C 278.645 197.867,278.896 198.230,279.003 198.333 C 279.050 198.379,279.449 198.955,279.890 199.613 L 280.690 200.809 281.720 200.919 C 283.605 201.119,302.572 200.698,304.333 200.417 C 306.146 200.128,307.499 199.541,307.846 198.893 C 308.256 198.126,308.193 179.903,307.778 179.269 C 306.659 177.561,303.256 177.337,278.433 177.335 L 261.617 177.333 263.699 179.323 M93.167 251.845 C 84.502 252.020,82.481 252.356,81.551 253.776 C 81.063 254.521,81.090 272.485,81.580 273.295 C 82.571 274.934,84.749 275.158,100.958 275.283 L 113.333 275.378 113.333 274.947 C 113.333 274.710,113.113 272.506,112.843 270.050 C 112.573 267.593,112.155 263.671,111.913 261.333 C 111.671 258.996,111.348 255.883,111.195 254.417 L 110.917 251.750 105.083 251.736 C 101.875 251.729,96.513 251.778,93.167 251.845 M293.757 253.708 C 293.598 254.740,293.365 256.648,293.240 257.948 C 292.707 263.491,292.299 266.307,291.303 271.333 C 290.931 273.212,290.617 274.862,290.605 275.000 C 290.586 275.218,291.213 275.244,295.500 275.205 C 304.785 275.119,307.398 274.641,307.964 272.923 C 308.301 271.901,308.181 254.232,307.833 253.702 C 307.023 252.465,303.270 251.839,296.648 251.835 L 294.046 251.833 293.757 253.708 M87.917 331.698 C 84.485 331.934,82.688 332.471,82.044 333.453 C 81.550 334.208,81.596 352.432,82.094 353.113 C 82.831 354.121,84.471 354.536,88.833 354.820 C 92.699 355.072,297.634 355.072,301.500 354.820 C 305.863 354.536,307.502 354.121,308.239 353.113 C 308.778 352.376,308.779 334.126,308.240 333.387 C 306.924 331.583,305.505 331.502,275.580 331.501 L 251.742 331.500 250.898 332.042 C 249.845 332.717,249.483 332.930,248.333 333.552 C 247.829 333.825,247.342 334.103,247.250 334.169 C 246.719 334.557,241.179 337.234,239.500 337.915 C 238.904 338.156,238.180 338.462,237.891 338.594 C 237.603 338.726,237.261 338.833,237.133 338.833 C 237.005 338.833,236.829 338.902,236.742 338.987 C 236.581 339.142,235.658 339.482,233.250 340.271 C 232.517 340.511,231.654 340.807,231.333 340.928 C 231.012 341.050,230.501 341.197,230.197 341.257 C 229.893 341.316,229.443 341.470,229.197 341.598 C 228.951 341.726,228.579 341.832,228.370 341.832 C 228.160 341.833,227.732 341.941,227.418 342.072 C 227.103 342.204,226.487 342.363,226.048 342.427 C 225.609 342.490,225.120 342.610,224.960 342.693 C 224.692 342.832,223.795 343.028,221.250 343.503 C 220.700 343.606,219.800 343.793,219.250 343.919 C 218.700 344.045,217.875 344.191,217.417 344.244 C 216.958 344.298,215.946 344.450,215.167 344.583 C 209.746 345.511,200.755 345.978,193.979 345.684 C 191.470 345.575,188.629 345.413,187.667 345.325 C 184.171 345.003,182.556 344.819,181.167 344.585 C 180.387 344.453,179.338 344.301,178.833 344.247 C 178.329 344.192,177.429 344.042,176.833 343.914 C 176.237 343.785,175.300 343.607,174.750 343.516 C 173.137 343.252,171.814 342.993,170.833 342.749 C 168.839 342.253,167.548 341.958,166.792 341.826 C 166.357 341.749,165.914 341.633,165.807 341.567 C 165.701 341.501,165.194 341.350,164.682 341.230 C 164.169 341.111,163.225 340.863,162.583 340.680 C 161.942 340.496,161.004 340.232,160.500 340.092 C 159.996 339.952,159.433 339.764,159.250 339.676 C 159.067 339.587,158.579 339.428,158.167 339.324 C 157.754 339.220,157.342 339.075,157.250 339.003 C 157.158 338.931,156.835 338.819,156.530 338.754 C 156.226 338.688,155.776 338.530,155.530 338.402 C 155.285 338.274,154.971 338.166,154.833 338.162 C 154.696 338.158,154.283 338.010,153.917 337.833 C 153.550 337.656,153.133 337.509,152.990 337.506 C 152.847 337.503,152.585 337.390,152.407 337.255 C 152.229 337.121,151.982 337.008,151.859 337.005 C 151.735 337.002,151.360 336.878,151.025 336.728 C 150.691 336.578,150.117 336.323,149.750 336.161 C 147.440 335.140,142.735 332.834,141.250 331.994 L 140.417 331.522 115.250 331.536 C 101.408 331.543,89.108 331.616,87.917 331.698 " stroke="none" fill="#fbfbfb" fill-rule="evenodd"></path><path id="path3" d="M287.247 84.866 C 287.575 86.250,287.697 87.572,287.997 93.000 C 288.182 96.346,288.409 100.021,288.502 101.167 C 289.720 116.258,290.013 123.959,289.686 132.250 C 289.121 146.525,285.210 156.829,278.762 161.028 C 276.166 162.719,276.311 162.724,262.537 160.405 C 246.333 157.677,245.029 157.606,235.583 158.948 C 233.933 159.182,232.527 159.425,232.458 159.487 C 232.318 159.614,236.692 161.774,239.236 162.836 C 240.145 163.215,241.692 163.928,242.675 164.421 C 243.657 164.913,244.497 165.281,244.541 165.237 C 244.585 165.193,245.700 165.079,247.019 164.984 C 250.916 164.702,253.066 164.945,266.667 167.202 C 281.677 169.694,281.330 169.708,284.773 166.450 C 289.422 162.049,292.182 155.690,293.507 146.333 C 293.936 143.297,294.342 132.078,294.045 131.465 C 293.929 131.227,293.825 129.270,293.768 126.250 C 293.683 121.733,293.509 118.680,292.929 111.500 C 292.799 109.896,292.697 107.833,292.702 106.917 C 292.713 104.842,292.221 95.590,291.996 93.635 C 291.804 91.963,291.060 89.550,290.318 88.191 C 289.185 86.117,286.976 83.726,287.247 84.866 M281.365 203.241 C 288.673 217.624,291.497 233.835,288.993 247.039 C 288.906 247.496,288.651 249.642,288.425 251.810 C 284.369 290.804,265.112 318.471,233.079 331.330 C 210.047 340.576,179.707 340.622,152.750 331.454 C 142.259 327.886,132.093 322.449,124.699 316.451 C 123.225 315.255,123.180 315.280,123.821 316.940 C 124.984 319.952,126.230 321.441,130.000 324.324 C 133.345 326.883,140.234 331.333,140.849 331.333 C 140.960 331.333,142.933 332.261,145.234 333.395 C 148.966 335.234,150.319 335.829,154.333 337.389 C 155.669 337.909,160.446 339.482,162.250 339.996 C 162.983 340.205,163.921 340.474,164.333 340.594 C 168.289 341.744,177.201 343.555,181.167 344.016 C 182.037 344.117,182.799 344.230,182.858 344.266 C 184.148 345.053,203.081 345.421,209.167 344.778 C 213.903 344.277,218.806 343.518,222.250 342.752 C 223.350 342.507,224.567 342.240,224.955 342.159 C 228.398 341.438,236.710 338.614,240.500 336.878 C 243.328 335.583,246.377 334.032,248.583 332.768 C 249.958 331.980,251.179 331.334,251.297 331.334 C 251.815 331.332,258.012 326.897,261.115 324.306 C 274.023 313.530,283.573 298.224,288.914 279.750 C 289.605 277.360,289.802 276.488,290.159 274.250 C 290.308 273.313,290.476 272.451,291.071 269.583 C 291.594 267.063,292.421 260.827,292.595 258.083 C 292.654 257.167,292.765 256.117,292.842 255.750 C 292.919 255.383,293.063 254.408,293.163 253.583 C 293.263 252.758,293.450 251.857,293.578 251.581 C 294.130 250.393,294.281 241.051,293.824 236.333 C 292.825 226.006,288.452 213.718,282.259 203.833 C 280.037 200.288,279.776 200.115,281.365 203.241 M132.172 212.417 C 136.903 220.458,143.331 228.104,151.333 235.207 C 152.571 236.305,153.702 237.339,153.847 237.503 C 154.191 237.892,159.429 238.513,159.295 238.149 C 159.270 238.081,158.275 237.295,157.083 236.401 C 147.285 229.054,138.856 221.015,133.507 213.917 C 131.929 211.822,131.615 211.469,132.172 212.417 " stroke="none" fill="#060509" fill-rule="evenodd"></path><path id="path4" d="M145.208 44.958 C 172.685 44.982,217.648 44.982,245.125 44.958 C 272.602 44.935,250.121 44.916,195.167 44.916 C 140.212 44.916,117.731 44.935,145.208 44.958 M89.625 45.118 C 89.831 45.157,90.169 45.157,90.375 45.118 C 90.581 45.078,90.412 45.045,90.000 45.045 C 89.587 45.045,89.419 45.078,89.625 45.118 M300.044 45.120 C 300.297 45.158,300.672 45.157,300.877 45.117 C 301.082 45.078,300.875 45.046,300.417 45.048 C 299.958 45.049,299.791 45.081,300.044 45.120 M87.042 45.282 C 87.202 45.323,87.465 45.323,87.625 45.282 C 87.785 45.240,87.654 45.205,87.333 45.205 C 87.013 45.205,86.881 45.240,87.042 45.282 M302.708 45.282 C 302.869 45.323,303.131 45.323,303.292 45.282 C 303.452 45.240,303.321 45.205,303.000 45.205 C 302.679 45.205,302.548 45.240,302.708 45.282 M211.288 61.620 C 211.584 61.657,212.109 61.658,212.455 61.622 C 212.800 61.586,212.558 61.555,211.917 61.555 C 211.275 61.554,210.992 61.583,211.288 61.620 M86.542 68.282 C 86.702 68.323,86.965 68.323,87.125 68.282 C 87.285 68.240,87.154 68.205,86.833 68.205 C 86.513 68.205,86.381 68.240,86.542 68.282 M303.294 68.285 C 303.501 68.324,303.801 68.323,303.960 68.281 C 304.120 68.239,303.950 68.207,303.583 68.209 C 303.217 68.211,303.086 68.245,303.294 68.285 M88.960 68.451 C 89.168 68.491,89.468 68.490,89.627 68.448 C 89.786 68.406,89.617 68.374,89.250 68.375 C 88.883 68.377,88.753 68.411,88.960 68.451 M300.794 68.451 C 301.001 68.491,301.301 68.490,301.460 68.448 C 301.620 68.406,301.450 68.374,301.083 68.375 C 300.717 68.377,300.586 68.411,300.794 68.451 M92.860 68.583 C 92.970 68.692,168.195 68.694,168.304 68.585 C 168.351 68.538,151.376 68.500,130.583 68.500 C 109.790 68.500,92.815 68.537,92.860 68.583 M260.697 68.586 C 260.807 68.696,297.364 68.692,297.474 68.582 C 297.519 68.537,289.243 68.500,279.083 68.500 C 268.924 68.500,260.650 68.539,260.697 68.586 M141.991 84.292 L 141.417 84.917 142.042 84.342 C 142.623 83.808,142.743 83.667,142.616 83.667 C 142.588 83.667,142.307 83.948,141.991 84.292 M138.073 88.208 L 137.583 88.750 138.125 88.260 C 138.423 87.991,138.667 87.748,138.667 87.719 C 138.667 87.590,138.529 87.703,138.073 88.208 M100.304 107.792 C 104.918 107.816,112.418 107.816,116.971 107.792 C 121.524 107.767,117.750 107.747,108.583 107.747 C 99.417 107.747,95.691 107.767,100.304 107.792 M292.718 107.939 C 292.661 108.090,292.739 109.646,292.893 111.398 C 293.469 117.982,293.682 121.559,293.783 126.359 L 293.886 131.302 294.381 131.401 C 294.652 131.455,295.334 131.487,295.896 131.471 L 296.917 131.441 295.750 131.346 L 294.583 131.250 294.393 125.917 C 294.206 120.659,294.057 118.152,293.579 112.250 C 293.445 110.600,293.335 108.933,293.334 108.546 L 293.333 107.842 295.875 107.791 L 298.417 107.741 295.620 107.704 C 293.162 107.671,292.810 107.700,292.718 107.939 M88.796 107.956 C 89.188 107.991,89.788 107.990,90.129 107.954 C 90.471 107.919,90.150 107.890,89.417 107.890 C 88.683 107.891,88.404 107.920,88.796 107.956 M300.375 107.955 C 300.719 107.991,301.281 107.991,301.625 107.955 C 301.969 107.919,301.688 107.889,301.000 107.889 C 300.313 107.889,300.031 107.919,300.375 107.955 M86.377 108.120 C 86.631 108.158,87.006 108.157,87.211 108.117 C 87.416 108.078,87.208 108.046,86.750 108.048 C 86.292 108.049,86.124 108.081,86.377 108.120 M303.211 108.120 C 303.464 108.158,303.839 108.157,304.044 108.117 C 304.249 108.078,304.042 108.046,303.583 108.048 C 303.125 108.049,302.957 108.081,303.211 108.120 M82.384 109.262 L 81.917 109.691 82.458 109.314 C 82.756 109.107,83.000 108.914,83.000 108.885 C 83.000 108.754,82.816 108.867,82.384 109.262 M308.744 119.583 C 308.744 124.075,308.765 125.889,308.792 123.613 C 308.818 121.338,308.818 117.663,308.791 115.447 C 308.765 113.230,308.744 115.092,308.744 119.583 M308.015 129.732 C 307.909 129.860,307.597 130.057,307.322 130.171 C 307.048 130.285,306.856 130.411,306.896 130.451 C 307.003 130.559,307.905 130.065,308.158 129.761 C 308.277 129.617,308.337 129.500,308.291 129.500 C 308.245 129.500,308.121 129.604,308.015 129.732 M85.375 130.948 C 85.535 130.990,85.798 130.990,85.958 130.948 C 86.119 130.906,85.987 130.872,85.667 130.872 C 85.346 130.872,85.215 130.906,85.375 130.948 M304.375 130.948 C 304.535 130.990,304.798 130.990,304.958 130.948 C 305.119 130.906,304.987 130.872,304.667 130.872 C 304.346 130.872,304.215 130.906,304.375 130.948 M86.708 131.119 C 86.960 131.158,87.373 131.158,87.625 131.119 C 87.877 131.081,87.671 131.050,87.167 131.050 C 86.662 131.050,86.456 131.081,86.708 131.119 M302.708 131.119 C 302.960 131.158,303.373 131.158,303.625 131.119 C 303.877 131.081,303.671 131.050,303.167 131.050 C 302.662 131.050,302.456 131.081,302.708 131.119 M89.548 131.290 C 90.078 131.323,90.903 131.323,91.381 131.289 C 91.859 131.256,91.425 131.229,90.417 131.229 C 89.408 131.229,89.017 131.257,89.548 131.290 M299.048 131.290 C 299.578 131.323,300.403 131.323,300.881 131.289 C 301.359 131.256,300.925 131.229,299.917 131.229 C 298.908 131.229,298.517 131.257,299.048 131.290 M99.554 131.458 C 102.929 131.483,108.404 131.483,111.721 131.458 C 115.037 131.433,112.275 131.412,105.583 131.412 C 98.892 131.412,96.178 131.433,99.554 131.458 M115.872 144.667 C 115.872 144.987,115.906 145.119,115.948 144.958 C 115.990 144.798,115.990 144.535,115.948 144.375 C 115.906 144.215,115.872 144.346,115.872 144.667 M115.705 147.333 C 115.705 147.654,115.740 147.785,115.782 147.625 C 115.823 147.465,115.823 147.202,115.782 147.042 C 115.740 146.881,115.705 147.012,115.705 147.333 M115.552 151.250 C 115.553 151.800,115.584 152.005,115.621 151.705 C 115.658 151.406,115.657 150.956,115.619 150.705 C 115.581 150.455,115.551 150.700,115.552 151.250 M115.550 160.167 C 115.550 160.671,115.581 160.877,115.619 160.625 C 115.658 160.373,115.658 159.960,115.619 159.708 C 115.581 159.456,115.550 159.662,115.550 160.167 M103.667 177.287 C 111.133 177.403,117.500 177.405,117.500 177.292 C 117.500 177.223,113.731 177.184,109.125 177.204 C 104.519 177.225,102.063 177.262,103.667 177.287 M268.208 177.292 C 271.944 177.317,278.056 177.317,281.792 177.292 C 285.527 177.267,282.471 177.246,275.000 177.246 C 267.529 177.246,264.473 177.267,268.208 177.292 M89.881 177.457 C 90.412 177.490,91.237 177.490,91.714 177.456 C 92.192 177.422,91.758 177.395,90.750 177.396 C 89.742 177.396,89.351 177.424,89.881 177.457 M297.714 177.457 C 298.245 177.490,299.070 177.490,299.548 177.456 C 300.026 177.422,299.592 177.395,298.583 177.396 C 297.575 177.396,297.184 177.424,297.714 177.457 M86.792 177.618 C 86.998 177.657,87.335 177.657,87.542 177.618 C 87.748 177.578,87.579 177.545,87.167 177.545 C 86.754 177.545,86.585 177.578,86.792 177.618 M301.792 177.618 C 301.998 177.657,302.335 177.657,302.542 177.618 C 302.748 177.578,302.579 177.545,302.167 177.545 C 301.754 177.545,301.585 177.578,301.792 177.618 M308.244 189.083 C 308.244 193.575,308.265 195.389,308.292 193.113 C 308.318 190.838,308.318 187.163,308.291 184.947 C 308.265 182.730,308.244 184.592,308.244 189.083 M277.430 196.292 C 278.092 197.296,279.302 199.298,279.748 200.125 C 280.217 200.994,280.225 201.000,280.985 200.973 C 281.572 200.953,281.627 200.931,281.222 200.880 C 280.780 200.825,280.562 200.618,279.891 199.615 C 279.450 198.956,279.048 198.379,278.999 198.333 C 278.949 198.287,278.541 197.706,278.091 197.042 C 277.642 196.377,277.242 195.833,277.201 195.833 C 277.161 195.833,277.264 196.040,277.430 196.292 M306.917 199.678 C 306.642 199.854,306.502 199.999,306.607 199.999 C 306.711 200.000,306.973 199.852,307.190 199.672 C 307.685 199.259,307.566 199.262,306.917 199.678 M85.708 200.615 C 85.869 200.657,86.131 200.657,86.292 200.615 C 86.452 200.573,86.321 200.539,86.000 200.539 C 85.679 200.539,85.548 200.573,85.708 200.615 M87.625 200.787 C 87.923 200.824,88.410 200.824,88.708 200.787 C 89.006 200.750,88.763 200.720,88.167 200.720 C 87.571 200.720,87.327 200.750,87.625 200.787 M300.795 200.787 C 301.094 200.825,301.544 200.824,301.795 200.786 C 302.045 200.748,301.800 200.717,301.250 200.718 C 300.700 200.719,300.495 200.750,300.795 200.787 M93.458 200.958 C 94.765 200.986,96.902 200.986,98.208 200.958 C 99.515 200.930,98.446 200.907,95.833 200.907 C 93.221 200.907,92.152 200.930,93.458 200.958 M291.292 200.958 C 292.598 200.986,294.735 200.986,296.042 200.958 C 297.348 200.930,296.279 200.907,293.667 200.907 C 291.054 200.907,289.985 200.930,291.292 200.958 M92.625 251.791 C 93.840 251.820,95.827 251.820,97.042 251.791 C 98.256 251.763,97.263 251.739,94.833 251.739 C 92.404 251.739,91.410 251.763,92.625 251.791 M293.559 251.794 C 293.453 251.862,293.317 252.367,293.256 252.917 C 293.194 253.467,293.043 254.517,292.919 255.250 C 292.795 255.983,292.647 257.296,292.590 258.167 C 292.411 260.902,291.564 267.265,291.082 269.500 C 290.954 270.096,290.773 270.996,290.681 271.500 C 290.589 272.004,290.399 272.942,290.260 273.583 C 289.930 275.099,289.935 275.333,290.298 275.333 C 290.466 275.333,290.600 275.207,290.605 275.042 C 290.611 274.881,290.923 273.212,291.298 271.333 C 292.294 266.344,292.704 263.523,293.240 257.948 C 293.365 256.648,293.598 254.742,293.756 253.713 L 294.045 251.842 296.481 251.791 L 298.917 251.740 296.333 251.706 C 294.912 251.687,293.664 251.727,293.559 251.794 M87.625 251.954 C 87.923 251.991,88.410 251.991,88.708 251.954 C 89.006 251.917,88.763 251.887,88.167 251.887 C 87.571 251.887,87.327 251.917,87.625 251.954 M300.621 251.954 C 300.917 251.990,301.442 251.991,301.788 251.955 C 302.134 251.919,301.892 251.889,301.250 251.888 C 300.608 251.887,300.325 251.917,300.621 251.954 M85.627 252.118 C 85.834 252.158,86.134 252.156,86.294 252.115 C 86.453 252.073,86.283 252.040,85.917 252.042 C 85.550 252.044,85.420 252.078,85.627 252.118 M303.127 252.118 C 303.334 252.158,303.634 252.156,303.794 252.115 C 303.953 252.073,303.783 252.040,303.417 252.042 C 303.050 252.044,302.920 252.078,303.127 252.118 M306.514 252.717 C 306.552 252.745,306.808 252.899,307.083 253.060 L 307.583 253.353 307.190 253.010 C 306.973 252.821,306.717 252.667,306.620 252.667 C 306.524 252.667,306.476 252.689,306.514 252.717 M308.244 263.583 C 308.244 268.075,308.265 269.889,308.292 267.613 C 308.318 265.338,308.318 261.663,308.291 259.447 C 308.265 257.230,308.244 259.092,308.244 263.583 M85.208 274.948 C 85.369 274.990,85.631 274.990,85.792 274.948 C 85.952 274.906,85.821 274.872,85.500 274.872 C 85.179 274.872,85.048 274.906,85.208 274.948 M303.708 274.948 C 303.869 274.990,304.131 274.990,304.292 274.948 C 304.452 274.906,304.321 274.872,304.000 274.872 C 303.679 274.872,303.548 274.906,303.708 274.948 M86.877 275.120 C 87.131 275.158,87.506 275.157,87.711 275.117 C 87.916 275.078,87.708 275.046,87.250 275.048 C 86.792 275.049,86.624 275.081,86.877 275.120 M113.333 275.165 C 113.333 275.271,110.376 275.346,105.042 275.375 L 96.750 275.420 105.125 275.460 C 112.476 275.495,113.500 275.469,113.500 275.250 C 113.500 275.112,113.462 275.000,113.417 275.000 C 113.371 275.000,113.333 275.074,113.333 275.165 M301.711 275.120 C 301.964 275.158,302.339 275.157,302.544 275.117 C 302.749 275.078,302.542 275.046,302.083 275.048 C 301.625 275.049,301.457 275.081,301.711 275.120 M90.049 275.290 C 90.671 275.323,91.646 275.322,92.215 275.290 C 92.784 275.257,92.275 275.231,91.083 275.231 C 89.892 275.232,89.426 275.258,90.049 275.290 M297.208 275.290 C 297.827 275.322,298.840 275.322,299.458 275.290 C 300.077 275.258,299.571 275.232,298.333 275.232 C 297.096 275.232,296.590 275.258,297.208 275.290 M291.208 275.453 C 291.460 275.491,291.873 275.491,292.125 275.453 C 292.377 275.415,292.171 275.383,291.667 275.383 C 291.162 275.383,290.956 275.415,291.208 275.453 M116.750 331.498 L 140.583 331.583 141.333 332.023 C 142.605 332.767,147.350 335.101,149.750 336.161 C 150.117 336.323,150.691 336.578,151.025 336.728 C 151.360 336.878,151.735 337.002,151.859 337.005 C 151.982 337.008,152.229 337.121,152.407 337.255 C 152.585 337.390,152.847 337.503,152.990 337.506 C 153.133 337.509,153.550 337.656,153.917 337.833 C 154.283 338.010,154.696 338.158,154.833 338.162 C 154.971 338.166,155.285 338.274,155.530 338.402 C 155.776 338.530,156.226 338.688,156.530 338.754 C 156.835 338.819,157.158 338.931,157.250 339.003 C 157.342 339.075,157.754 339.220,158.167 339.324 C 158.579 339.428,159.067 339.587,159.250 339.676 C 159.433 339.764,159.996 339.952,160.500 340.092 C 161.004 340.232,161.942 340.496,162.583 340.680 C 163.225 340.863,164.169 341.111,164.682 341.230 C 165.194 341.350,165.701 341.501,165.807 341.567 C 165.914 341.633,166.357 341.749,166.792 341.826 C 167.548 341.958,168.839 342.253,170.833 342.749 C 171.814 342.993,173.137 343.252,174.750 343.516 C 175.300 343.607,176.237 343.785,176.833 343.914 C 177.429 344.042,178.329 344.192,178.833 344.247 C 179.338 344.301,180.387 344.453,181.167 344.585 C 186.494 345.482,196.340 345.981,202.896 345.686 C 205.291 345.578,208.000 345.417,208.917 345.328 C 212.205 345.009,213.772 344.822,215.167 344.583 C 215.946 344.450,216.958 344.298,217.417 344.244 C 217.875 344.191,218.700 344.045,219.250 343.919 C 219.800 343.793,220.700 343.606,221.250 343.503 C 223.795 343.028,224.692 342.832,224.960 342.693 C 225.120 342.610,225.609 342.490,226.048 342.427 C 226.487 342.363,227.103 342.204,227.418 342.072 C 227.732 341.941,228.160 341.833,228.370 341.832 C 228.579 341.832,228.951 341.726,229.197 341.598 C 229.443 341.470,229.893 341.316,230.197 341.257 C 230.501 341.197,231.012 341.050,231.333 340.928 C 231.654 340.807,232.517 340.511,233.250 340.271 C 235.658 339.482,236.581 339.142,236.742 338.987 C 236.829 338.902,237.005 338.833,237.133 338.833 C 237.261 338.833,237.603 338.726,237.891 338.594 C 238.180 338.462,238.904 338.156,239.500 337.915 C 241.179 337.234,246.719 334.557,247.250 334.169 C 247.342 334.103,247.867 333.801,248.417 333.500 C 249.923 332.674,250.024 332.614,250.833 332.079 L 251.583 331.583 274.500 331.498 L 297.417 331.413 274.167 331.415 L 250.917 331.417 248.417 332.854 C 246.214 334.119,243.415 335.542,240.500 336.878 C 236.711 338.614,228.398 341.438,224.955 342.159 C 224.567 342.240,223.350 342.507,222.250 342.752 C 218.806 343.518,213.903 344.277,209.167 344.778 C 203.081 345.421,184.148 345.053,182.858 344.266 C 182.799 344.230,182.037 344.117,181.167 344.016 C 177.201 343.555,168.289 341.744,164.333 340.594 C 163.921 340.474,162.983 340.205,162.250 339.996 C 160.446 339.482,155.669 337.909,154.333 337.389 C 150.301 335.821,148.976 335.239,145.333 333.437 L 141.250 331.417 117.083 331.415 L 92.917 331.413 116.750 331.498 M89.127 331.618 C 89.334 331.658,89.634 331.656,89.794 331.615 C 89.953 331.573,89.783 331.540,89.417 331.542 C 89.050 331.544,88.920 331.578,89.127 331.618 M300.627 331.618 C 300.834 331.658,301.134 331.656,301.294 331.615 C 301.453 331.573,301.283 331.540,300.917 331.542 C 300.550 331.544,300.420 331.578,300.627 331.618 M86.627 331.785 C 86.834 331.824,87.134 331.823,87.294 331.781 C 87.453 331.739,87.283 331.707,86.917 331.709 C 86.550 331.711,86.420 331.745,86.627 331.785 M303.127 331.785 C 303.334 331.824,303.634 331.823,303.794 331.781 C 303.953 331.739,303.783 331.707,303.417 331.709 C 303.050 331.711,302.920 331.745,303.127 331.785 M86.875 354.782 C 87.035 354.823,87.298 354.823,87.458 354.782 C 87.619 354.740,87.487 354.705,87.167 354.705 C 86.846 354.705,86.715 354.740,86.875 354.782 M302.875 354.782 C 303.035 354.823,303.298 354.823,303.458 354.782 C 303.619 354.740,303.487 354.705,303.167 354.705 C 302.846 354.705,302.715 354.740,302.875 354.782 M89.458 354.951 C 89.665 354.991,90.002 354.991,90.208 354.951 C 90.415 354.911,90.246 354.879,89.833 354.879 C 89.421 354.879,89.252 354.911,89.458 354.951 M300.125 354.951 C 300.331 354.991,300.669 354.991,300.875 354.951 C 301.081 354.911,300.912 354.879,300.500 354.879 C 300.087 354.879,299.919 354.911,300.125 354.951 M144.792 355.125 C 172.498 355.148,217.835 355.148,245.542 355.125 C 273.248 355.102,250.579 355.083,195.167 355.083 C 139.754 355.083,117.085 355.102,144.792 355.125 " stroke="none" fill="#988dc0" fill-rule="evenodd"></path></g></svg>